<?xml version="1.0" encoding="utf-8"?>
<!-- Generator: Adobe Illustrator 16.0.0, SVG Export Plug-In . SVG Version: 6.00 Build 0)  -->
<!DOCTYPE svg PUBLIC "-//W3C//DTD SVG 1.1//EN" "http://www.w3.org/Graphics/SVG/1.1/DTD/svg11.dtd">
<svg version="1.1" id="Layer_1" xmlns="http://www.w3.org/2000/svg" xmlns:xlink="http://www.w3.org/1999/xlink" x="0px" y="0px"
	 width="1240px" height="271.717px" viewBox="0 0 1240 271.717" enable-background="new 0 0 1240 271.717" xml:space="preserve">
<g>
	<defs>
		<rect id="SVGID_1_" width="1240" height="271.717"/>
	</defs>
	<clipPath id="SVGID_2_">
		<use xlink:href="#SVGID_1_"  overflow="visible"/>
	</clipPath>
	<g clip-path="url(#SVGID_2_)">
		<defs>
			<polygon id="SVGID_3_" points="1240,-1114.771 0,-1114.091 0,592.233 1240,591.555 			"/>
		</defs>
		<clipPath id="SVGID_4_">
			<use xlink:href="#SVGID_3_"  overflow="visible"/>
		</clipPath>
		<path clip-path="url(#SVGID_4_)" fill="none" stroke="#124294" stroke-width="0.6" stroke-miterlimit="10" d="M3371.142,434.38
			c-89.71-67.26-193.033-125.436-297.253-169.684C2737.267,121.783,2377.609,89.748,2045.41,94.154
			c-320.831,4.252-632.751,29.732-955.963,28.261c-318.417-1.454-646.338-24.16-976.869-92.741
			C-73.578-8.952-260.361-61.675-440.61-130.03l1.267-3.414"/>
		<path clip-path="url(#SVGID_4_)" fill="none" stroke="#7AB929" stroke-width="0.6" stroke-miterlimit="10" d="M3322.938,564.142
			c-74.407-62.118-159.293-118.15-248.446-164.882c-318.933-167.172-680.509-229.614-1017.196-245.039
			c-326.777-14.972-644.1,0.583-969.158-8.522c-320.462-8.976-648.413-36.392-978.374-107.844
			C-76.066-2.382-262.522-56.235-442.325-125.412l2.431-6.546"/>
		<path clip-path="url(#SVGID_4_)" fill="none" stroke="#1E96B5" stroke-width="1.5" stroke-miterlimit="10" d="M3254.424,748.58
			c-65.139-65.392-140.173-126.598-222.53-181.27c-297.207-197.295-653.675-293.912-999.697-331.781
			c-332.43-36.381-657.97-36.449-987.282-58.65C722.066,155.116,393.79,117.755,65.567,38.218
			C-106.134-3.391-277.839-56.208-443.698-121.718"/>
		<path clip-path="url(#SVGID_4_)" fill="none" stroke="#B3CC2A" stroke-width="0.6" stroke-miterlimit="10" d="M3189.587,923.121
			c-51.157-64.058-110.111-125.938-177.249-184.349C2891.235,633.415,2746.8,541.39,2589.211,471.625
			c-170.578-75.513-352.505-121.865-532.018-152.988c-341.915-59.282-681.05-74.331-1019.558-108.759
			C706.639,176.216,371.738,130.205,38.424,42.591c-163.4-42.955-326.378-95.642-483.917-159.475"/>
		<path clip-path="url(#SVGID_4_)" fill="none" stroke="#DE1C19" stroke-width="0.6" stroke-miterlimit="10" d="M3130.678,1081.702
			c-36.124-58.785-77.892-116.802-127.069-173.609c-95.279-110.06-214.639-213.036-354.993-295.545
			c-166.683-97.985-356.646-161.922-545.053-206.277c-181.152-42.646-362.744-68.699-543.276-93.374
			c-172.067-23.521-343.842-44.599-515.866-67.766C701.399,198.946,355.229,144.034,12.514,47.086
			c-155.399-43.962-310.222-96.373-460.01-158.583"/>
	</g>
</g>
</svg>
