<?xml version="1.0" standalone="no"?>
<!-- Generator: Adobe Fireworks 10, Export SVG Extension by Aaron Beall (http://fireworks.abeall.com) . Version: 0.6.0  -->
<!DOCTYPE svg PUBLIC "-//W3C//DTD SVG 1.1//EN" "http://www.w3.org/Graphics/SVG/1.1/DTD/svg11.dtd">
<svg id="" viewBox="0 0 177 43" style="background-color:#ffffff00" version="1.1"
	xmlns="http://www.w3.org/2000/svg" xmlns:xlink="http://www.w3.org/1999/xlink" xml:space="preserve"
	x="0px" y="0px" width="177px" height="43px"
>
	<g>
		<path d="M 36.4051 15.9729 L 25.3008 15.9729 C 24.8961 15.9729 24.568 16.2967 24.568 16.6964 C 24.568 17.0961 24.8961 17.4198 25.3008 17.4198 L 36.4051 17.4198 C 36.8102 17.4198 37.1383 17.0961 37.1383 16.6964 C 37.1383 16.2967 36.8102 15.9729 36.4051 15.9729 L 36.4051 15.9729 Z" fill="#ffffff"/>
		<path d="M 36.4051 20.5448 L 25.3008 20.5448 C 24.8961 20.5448 24.568 20.8686 24.568 21.2683 C 24.568 21.6679 24.8961 21.9917 25.3008 21.9917 L 36.4051 21.9917 C 36.8102 21.9917 37.1383 21.6679 37.1383 21.2683 C 37.1383 20.8686 36.8102 20.5448 36.4051 20.5448 L 36.4051 20.5448 Z" fill="#ffffff"/>
		<path d="M 36.4051 25.1171 L 25.3008 25.1171 C 24.8961 25.1171 24.568 25.4404 24.568 25.8405 C 24.568 26.2406 24.8961 26.5639 25.3008 26.5639 L 36.4051 26.5639 C 36.8102 26.5639 37.1383 26.2406 37.1383 25.8405 C 37.1383 25.4404 36.8102 25.1171 36.4051 25.1171 L 36.4051 25.1171 Z" fill="#ffffff"/>
		<path d="M 36.4051 11.4007 L 25.3008 11.4007 C 24.8961 11.4007 24.568 11.7244 24.568 12.1241 C 24.568 12.5238 24.8961 12.8476 25.3008 12.8476 L 36.4051 12.8476 C 36.8102 12.8476 37.1383 12.5238 37.1383 12.1241 C 37.1383 11.7244 36.8102 11.4007 36.4051 11.4007 L 36.4051 11.4007 Z" fill="#ffffff"/>
		<path d="M 46.8 36.8297 C 46.8 37.2286 46.4715 37.5531 46.0673 37.5531 L 26.759 37.5531 C 26.3548 37.5531 26.0259 37.2286 26.0259 36.8297 L 26.0259 33.8792 L 40.5069 33.8792 C 41.7197 33.8792 42.7059 32.9057 42.7059 31.7089 L 42.7059 11.5677 L 46.0661 11.5677 C 46.4708 11.5677 46.7996 11.8922 46.7996 12.2911 L 46.7996 36.8297 L 46.8 36.8297 ZM 21.199 32.4323 C 20.7951 32.4323 20.4659 32.1078 20.4659 31.7089 L 20.4659 7.1703 C 20.4659 6.7714 20.7948 6.4469 21.199 6.4469 L 40.5069 6.4469 C 40.9115 6.4469 41.24 6.7714 41.24 7.1703 L 41.24 31.7089 C 41.24 32.1078 40.9115 32.4323 40.5069 32.4323 L 21.199 32.4323 L 21.199 32.4323 ZM 46.0673 10.1208 L 42.7063 10.1208 L 42.7063 7.1703 C 42.7059 5.9735 41.7197 5 40.5069 5 L 21.199 5 C 19.9862 5 19 5.9735 19 7.1703 L 19 31.7089 C 19 32.9057 19.9862 33.8792 21.199 33.8792 L 24.5596 33.8792 L 24.5596 36.8297 C 24.5596 38.0265 25.5458 39 26.7587 39 L 46.0665 39 C 47.2793 39 48.2655 38.0265 48.2655 36.8297 L 48.2655 12.2911 C 48.2663 11.0943 47.2797 10.1208 46.0673 10.1208 L 46.0673 10.1208 Z" fill="#ffffff"/>
		<path d="M 61.267 17.4397 C 60.1794 18.0698 59.3143 18.9346 58.6963 20.0465 C 58.066 21.1584 57.7571 22.3692 57.7571 23.6664 C 57.7571 25.6185 58.4368 27.2863 59.821 28.6577 C 61.2052 30.0414 62.8983 30.7209 64.9004 30.7209 C 66.8778 30.7209 68.5463 30.0291 69.9304 28.6453 C 71.3023 27.2616 71.9944 25.5814 71.9944 23.6047 C 71.9944 21.6032 71.3023 19.923 69.9181 18.5516 C 68.5339 17.1802 66.8284 16.4884 64.7892 16.4884 C 63.5286 16.4884 62.3545 16.8096 61.267 17.4397 L 61.267 17.4397 ZM 67.6441 18.8234 C 68.5215 19.3176 69.2013 19.9847 69.6833 20.8125 C 70.1653 21.6526 70.4124 22.5792 70.4124 23.5923 C 70.4124 24.6301 70.1653 25.5814 69.6833 26.4215 C 69.2013 27.2616 68.5339 27.9288 67.6688 28.4106 C 66.8037 28.9048 65.8644 29.1395 64.851 29.1395 C 63.3185 29.1395 62.0208 28.6206 60.9456 27.5581 C 59.8704 26.4956 59.339 25.1984 59.339 23.6541 C 59.339 22.6163 59.5738 21.6773 60.0681 20.8372 C 60.5501 19.9971 61.2299 19.3176 62.095 18.8234 C 62.9601 18.3292 63.8746 18.0698 64.851 18.0698 C 65.8273 18.0698 66.7542 18.3292 67.6441 18.8234 L 67.6441 18.8234 Z" fill="#ffffff"/>
		<path d="M 78.2108 16.4884 C 77.7041 16.4884 77.2715 16.5872 76.9255 16.7602 C 76.5671 16.9455 76.3199 17.1802 76.1716 17.4767 C 76.0233 17.7733 75.9492 18.2551 75.9492 18.9469 L 75.9492 20.4419 L 74.3672 20.4419 L 74.3672 22.0233 L 75.9492 22.0233 L 75.9492 30.7209 L 77.5311 30.7209 L 77.5434 22.0233 L 79.904 22.0233 L 79.904 20.4419 L 77.5434 20.4419 L 77.5434 19.3423 C 77.5434 18.8728 77.5558 18.5887 77.6052 18.4775 C 77.6547 18.3786 77.7659 18.2798 77.9389 18.1933 C 78.1119 18.1192 78.3344 18.0698 78.6063 18.0698 C 78.9647 18.0698 79.3972 18.181 79.904 18.391 L 79.904 16.7602 C 79.2366 16.5872 78.6804 16.4884 78.2108 16.4884 L 78.2108 16.4884 Z" fill="#ffffff"/>
		<path d="M 84.5385 16.4884 C 84.0318 16.4884 83.5992 16.5872 83.2532 16.7602 C 82.8948 16.9455 82.6476 17.1802 82.4993 17.4767 C 82.351 17.7733 82.2768 18.2551 82.2768 18.9469 L 82.2768 20.4419 L 80.6949 20.4419 L 80.6949 22.0233 L 82.2768 22.0233 L 82.2768 30.7209 L 83.8588 30.7209 L 83.8711 22.0233 L 86.2316 22.0233 L 86.2316 20.4419 L 83.8711 20.4419 L 83.8711 19.3423 C 83.8711 18.8728 83.8835 18.5887 83.9329 18.4775 C 83.9823 18.3786 84.0936 18.2798 84.2666 18.1933 C 84.4396 18.1192 84.6621 18.0698 84.934 18.0698 C 85.2924 18.0698 85.7249 18.181 86.2316 18.391 L 86.2316 16.7602 C 85.5643 16.5872 85.0081 16.4884 84.5385 16.4884 L 84.5385 16.4884 Z" fill="#ffffff"/>
		<path d="M 95.0681 28.4971 C 94.7345 28.6948 94.3266 28.8554 93.8446 28.9666 C 93.3626 29.0901 92.8683 29.1395 92.3739 29.1395 C 91.3111 29.1395 90.4336 28.843 89.7168 28.25 C 89 27.657 88.6292 26.9033 88.6045 25.9767 L 98.096 25.9767 C 98.0713 24.5683 97.6758 23.3946 96.9096 22.4433 C 95.822 21.109 94.3637 20.4419 92.5346 20.4419 C 90.7549 20.4419 89.3337 21.0596 88.2708 22.2951 C 87.4304 23.2711 87.0226 24.3706 87.0226 25.6061 C 87.0226 26.9281 87.4922 28.1141 88.4439 29.1519 C 89.3831 30.202 90.7055 30.7209 92.3863 30.7209 C 93.1402 30.7209 93.8199 30.6344 94.4131 30.4368 C 95.0064 30.2515 95.5625 29.9797 96.0816 29.609 C 96.6006 29.2384 97.0085 28.7565 97.3051 28.1512 L 96.1681 27.5581 C 95.7726 27.9906 95.4018 28.2994 95.0681 28.4971 L 95.0681 28.4971 ZM 88.7405 24.3953 C 89.0124 23.6788 89.4202 23.1352 89.964 22.7645 C 90.6931 22.2703 91.5706 22.0233 92.5964 22.0233 C 93.2143 22.0233 93.7952 22.1221 94.3637 22.3198 C 94.9322 22.5174 95.3771 22.7769 95.7232 23.0981 C 96.0692 23.4193 96.3287 23.8517 96.5141 24.3953 L 88.7405 24.3953 L 88.7405 24.3953 Z" fill="#ffffff"/>
		<path d="M 99.678 30.7209 L 101.2599 30.7209 L 101.2599 27.4593 C 101.2599 25.7791 101.334 24.6672 101.5071 24.1235 C 101.7295 23.407 102.0508 22.8881 102.471 22.5422 C 102.8912 22.1962 103.3362 22.0233 103.7934 22.0233 C 103.9788 22.0233 104.2136 22.085 104.5102 22.2086 L 105.2147 20.8001 C 104.7821 20.5654 104.3867 20.4419 104.0159 20.4419 C 103.5092 20.4419 103.0272 20.5531 102.5699 20.7631 C 102.1003 20.9731 101.6677 21.3808 101.2599 21.9738 L 101.2599 20.4419 L 99.678 20.4419 L 99.678 30.7209 L 99.678 30.7209 Z" fill="#ffffff"/>
		<path d="M 109.5526 20.4419 C 108.7493 20.4419 108.0943 20.7013 107.5752 21.2078 C 107.0561 21.7144 106.7966 22.3445 106.7966 23.0981 C 106.7966 23.6911 106.9449 24.21 107.2415 24.6672 C 107.5381 25.1243 108.0943 25.5814 108.9347 26.0509 C 109.7009 26.4092 110.1953 26.7057 110.4177 26.9404 C 110.6402 27.1875 110.7514 27.4593 110.7514 27.7558 C 110.7514 28.1265 110.566 28.46 110.2076 28.7318 C 109.8492 29.0036 109.4167 29.1395 108.9223 29.1395 C 108.1931 29.1395 107.5011 28.8801 106.8584 28.3488 L 106.0056 29.3249 C 106.3641 29.7696 106.8213 30.1032 107.3775 30.3503 C 107.9336 30.5974 108.5145 30.7209 109.1324 30.7209 C 110.047 30.7209 110.8008 30.4491 111.4188 29.8932 C 112.0244 29.3372 112.3333 28.6577 112.3333 27.8547 C 112.3333 27.2863 112.1727 26.7798 111.8761 26.3103 C 111.5547 25.8656 110.9739 25.4331 110.1088 24.9884 C 109.3919 24.6301 108.9347 24.3212 108.7122 24.0494 C 108.4898 23.8023 108.3785 23.5305 108.3785 23.234 C 108.3785 22.9128 108.5021 22.641 108.7617 22.3939 C 109.0212 22.1468 109.3302 22.0233 109.7009 22.0233 C 110.2694 22.0233 110.8626 22.2951 111.4682 22.814 L 112.3333 21.9121 C 111.3941 20.936 110.4672 20.4419 109.5526 20.4419 L 109.5526 20.4419 Z" fill="#ffffff"/>
		<path d="M 125.7797 16.4884 L 119.452 30.7209 L 121.0463 30.7209 L 123.1596 25.9767 L 129.1907 25.9767 L 131.304 30.7209 L 132.8983 30.7209 L 126.5706 16.4884 L 125.7797 16.4884 L 125.7797 16.4884 ZM 128.4862 24.3953 L 123.864 24.3953 L 126.1751 19.1817 L 128.4862 24.3953 L 128.4862 24.3953 Z" fill="#0059b2"/>
		<path d="M 134.4802 34.6744 L 136.0621 34.6744 L 136.0621 28.6453 C 136.6183 29.3372 137.2486 29.8561 137.9407 30.202 C 138.6328 30.548 139.3867 30.7209 140.2271 30.7209 C 141.6854 30.7209 142.946 30.2267 143.9841 29.2137 C 145.0222 28.2129 145.5537 26.9898 145.5537 25.5567 C 145.5537 24.1483 145.0222 22.9499 143.9717 21.9491 C 142.9213 20.9484 141.6607 20.4419 140.19 20.4419 C 139.3372 20.4419 138.571 20.5901 137.8789 20.8619 C 137.1868 21.1337 136.5812 21.6403 136.0621 22.3692 L 136.0621 20.4419 L 134.4802 20.4419 L 134.4802 34.6744 L 134.4802 34.6744 ZM 141.982 22.4927 C 142.5876 22.8016 143.0695 23.234 143.428 23.79 C 143.7864 24.3583 143.9717 24.9513 143.9717 25.569 C 143.9717 26.1868 143.7864 26.7798 143.428 27.3481 C 143.0572 27.9164 142.5752 28.3612 141.9696 28.6701 C 141.364 28.9913 140.7214 29.1395 140.0293 29.1395 C 139.3249 29.1395 138.6575 28.9913 138.0272 28.6701 C 137.3845 28.3612 136.9025 27.9411 136.5688 27.4099 C 136.2228 26.8786 136.0621 26.2733 136.0621 25.6061 C 136.0621 24.593 136.4329 23.7406 137.1992 23.0487 C 137.9654 22.3692 138.9047 22.0233 140.0169 22.0233 C 140.7214 22.0233 141.3764 22.1839 141.982 22.4927 L 141.982 22.4927 Z" fill="#0059b2"/>
		<path d="M 147.9265 34.6744 L 149.5085 34.6744 L 149.5085 28.6453 C 150.0646 29.3372 150.6949 29.8561 151.387 30.202 C 152.0791 30.548 152.833 30.7209 153.6734 30.7209 C 155.1317 30.7209 156.3923 30.2267 157.4304 29.2137 C 158.4686 28.2129 159 26.9898 159 25.5567 C 159 24.1483 158.4686 22.9499 157.4181 21.9491 C 156.3676 20.9484 155.107 20.4419 153.6363 20.4419 C 152.7835 20.4419 152.0173 20.5901 151.3252 20.8619 C 150.6331 21.1337 150.0275 21.6403 149.5085 22.3692 L 149.5085 20.4419 L 147.9265 20.4419 L 147.9265 34.6744 L 147.9265 34.6744 ZM 155.4283 22.4927 C 156.0339 22.8016 156.5159 23.234 156.8743 23.79 C 157.2327 24.3583 157.4181 24.9513 157.4181 25.569 C 157.4181 26.1868 157.2327 26.7798 156.8743 27.3481 C 156.5035 27.9164 156.0215 28.3612 155.416 28.6701 C 154.8104 28.9913 154.1677 29.1395 153.4756 29.1395 C 152.7712 29.1395 152.1038 28.9913 151.4735 28.6701 C 150.8309 28.3612 150.3489 27.9411 150.0152 27.4099 C 149.6691 26.8786 149.5085 26.2733 149.5085 25.6061 C 149.5085 24.593 149.8792 23.7406 150.6455 23.0487 C 151.4117 22.3692 152.351 22.0233 153.4633 22.0233 C 154.1677 22.0233 154.8227 22.1839 155.4283 22.4927 L 155.4283 22.4927 Z" fill="#0059b2"/>
	</g>
</svg>