<?xml version="1.0" encoding="utf-8"?>
<!-- Generator: Adobe Illustrator 21.1.0, SVG Export Plug-In . SVG Version: 6.00 Build 0)  -->
<svg version="1.1" id="Layer_1" xmlns="http://www.w3.org/2000/svg" xmlns:xlink="http://www.w3.org/1999/xlink" x="0px" y="0px"
	 width="794px" height="354px" viewBox="0 0 794 354" style="enable-background:new 0 0 794 354;" xml:space="preserve">
<style type="text/css">
	.st0{fill:#004D9F;}
	.st1{fill:#004E9D;}
	.st2{fill:#3773B6;}
	.st3{fill:#3FBCBC;}
	.st4{fill:#548D34;}
	.st5{fill:#A8CF43;}
	.st6{fill:#B8D43B;}
	.st7{fill:#E12926;}
	.st8{fill:#76BD42;}
	.st9{fill:#3094D1;}
	.st10{fill:#1B95B0;}
</style>
<g id="XMLID_101_">
	<g id="XMLID_156_">
		<path id="XMLID_157_" class="st0" d="M193.9,68c0-1.8-1-3.9-5.7-3.9c-4.3,0-9,3.3-9,10c0,3.1,1.4,5.2,5.9,5.2c2.1,0,4.4-0.4,6.4-1
			v-4c-1.5,0.5-3.2,0.9-4.7,0.9c-1.7,0-2.1-0.4-2.1-1.2v-0.4C189.8,73.6,193.9,72,193.9,68z M187.7,68c0.6,0,1,0.3,1,0.8
			c0,1.4-1.6,1.8-3.6,1.8C185.4,69.3,186.2,68,187.7,68z"/>
	</g>
	<g id="XMLID_152_">
		<path id="XMLID_153_" class="st0" d="M208.8,68c0-1.8-1-3.9-5.7-3.9c-4.3,0-9,3.3-9,10c0,3.1,1.4,5.2,5.9,5.2c2.1,0,4.3-0.4,6.4-1
			v-4c-1.5,0.5-3.2,0.9-4.7,0.9c-1.7,0-2.1-0.4-2.1-1.2v-0.4C204.8,73.6,208.8,72,208.8,68z M202.6,68c0.6,0,1,0.3,1,0.8
			c0,1.4-1.6,1.8-3.6,1.8C200.4,69.3,201.1,68,202.6,68z"/>
	</g>
	<g id="XMLID_148_">
		<path id="XMLID_149_" class="st0" d="M273.9,68.2c0-1.7-1-3.9-5.6-3.9c-4.2,0-8.9,3.3-8.9,9.8c0,3.1,1.4,5.1,5.8,5.1
			c2.1,0,4.2-0.4,6.2-1v-3.9c-1.5,0.5-3.2,0.9-4.6,0.9c-1.6,0-2.1-0.4-2.1-1.1v-0.4C269.9,73.7,273.9,72.2,273.9,68.2z M267.8,68.1
			c0.6,0,0.9,0.3,0.9,0.7c0,1.4-1.5,1.8-3.5,1.8C265.6,69.5,266.3,68.1,267.8,68.1z"/>
	</g>
	<g id="XMLID_144_">
		<path id="XMLID_145_" class="st0" d="M288.5,68.1c0-1.8-1-3.9-5.6-3.9c-4.2,0-8.9,3.3-8.9,9.9c0,3.1,1.4,5.1,5.8,5.1
			c2.1,0,4.3-0.4,6.3-1v-4c-1.5,0.5-3.2,0.9-4.6,0.9c-1.6,0-2.1-0.4-2.1-1.2v-0.4C284.6,73.7,288.5,72.1,288.5,68.1z M282.3,68
			c0.6,0,0.9,0.3,0.9,0.8c0,1.4-1.5,1.8-3.5,1.8C280.2,69.4,281,68,282.3,68z"/>
	</g>
	<path id="XMLID_142_" class="st0" d="M302.3,78.2c0,0-0.5,0-1.6,0.2c-1.2,0.2-4.1,0.7-4.1,0.7l1.8-8.9c0.2-1.1,0.1-1.4-0.3-1.4
		c-1,0-3.2,2.9-3.8,6l-0.9,4.3h-5.6l1.5-7.6c0.5-2.3,0.9-4.7,1.3-7l5.4-0.2c-0.2,0.7-0.5,1.8-0.9,2.9h0.1c1.4-1.9,3.1-3.2,5.6-3.2
		c3.2,0,4,2.2,3.4,4.7L302.3,78.2z"/>
	<path id="XMLID_139_" class="st0" d="M175.2,57.4l-1.4,6.8c-0.5-0.1-0.7-0.1-0.9-0.1c-6.8,0-10.2,4.9-10.2,10.6
		c0,3.2,1.4,4.8,3.9,4.8c2.2,0,4-1.1,5.4-3.2h0.1c-0.5,1-0.7,1.8-0.9,2.7h5.3c0.3-1.8,0.6-3.5,0.9-5.2l2.7-13.2 M172.9,69
		c-0.5,2.4-2.6,5.7-3.8,5.7c-0.5,0-0.6-0.4-0.6-1.2c0-2.3,1.6-5.1,3.4-5.3c0.5-0.1,0.7,0.1,1.1,0.2L172.9,69z"/>
	<path id="XMLID_136_" class="st0" d="M212.9,82.8l0.9-3.4c0.5,0.1,0.7,0.1,0.9,0.1c6.8,0,10.2-4.9,10.2-10.6c0-3.2-1.4-4.8-3.9-4.8
		c-2.2,0-4,1.1-5.4,3.2h-0.1c0.5-1,0.7-1.8,1-2.7h-5.4c-0.4,2.3-0.8,4.6-1.3,7l-2.9,14.5l0.2-0.2C207.1,85.7,210,83.7,212.9,82.8z
		 M214.8,74.4c0.5-2.4,2.6-5.7,3.8-5.7c0.5,0,0.6,0.4,0.6,1.2c0,2.3-1.6,5.1-3.5,5.3c-0.5,0.1-0.7-0.1-1.1-0.2L214.8,74.4z"/>
	<path id="XMLID_135_" class="st0" d="M228.1,75.2c-0.6,0-1.5-0.2-2.2-0.5l-3.3,4.2c2.7-0.6,8-1.4,11-1.5c1.2-1,1.6-2.3,1.6-3.4
		c0-3.1-3.1-4.2-3.1-5.3c0-0.5,0.5-0.7,1.4-0.7c0.5,0,1.2,0.1,1.7,0.3l1-4c-0.8-0.1-1.7-0.2-2.6-0.2c-5,0-7.4,2.3-7.4,5.1
		c0,3.3,3,3.9,3,5.2C229.6,74.9,229.1,75.2,228.1,75.2z"/>
	<path id="XMLID_134_" class="st0" d="M252.2,78.9l1.4,0.2l0.6-3c1.3-6.1,3.3-7.4,4.8-6.9l2.1-5.1c-2.8-0.2-4.2,0.9-5.8,3.3h-0.1
		c0.5-1.1,0.7-2.1,0.9-3h-5.3c-0.4,2.3-0.8,4.6-1.3,7l-1.4,6.9C249.5,78.4,250.6,78.6,252.2,78.9z"/>
	<path id="XMLID_133_" class="st0" d="M246.2,78l0.6-3.6c-0.6,0.2-1.6,0.4-2.3,0.4c-1.3,0-2-0.6-2-1.8c0-1.9,1-4.2,3.3-4.2
		c0.6,0,1.5,0.2,2.1,0.4l0.9-4.7c-0.9-0.2-1.8-0.3-2.8-0.3c-5.7,0-9.4,4.3-9.4,9.9c0,1.4,0.3,2.5,1,3.4
		C240.6,77.4,243.5,77.6,246.2,78z"/>
</g>
<g id="XMLID_1530_">
	<g id="XMLID_1655_">
		<path class="st1" d="M352.9,232c-5.6,0-10.8-1.8-14.8-5.1c-3.8-3.2-6.1-7.4-6.4-11.9c-0.9-10.5,8.2-20,20.4-21.1
			c6.4-0.6,12.7,1.2,17.3,5.1c3.8,3.2,6.1,7.4,6.4,11.9l0,0c0.9,10.5-8.2,20-20.4,21.1C354.5,231.9,353.7,232,352.9,232z
			 M354.5,194.3c-0.8,0-1.5,0-2.3,0.1c-11.7,1.1-20.7,10.3-19.8,20.4c0.4,4.3,2.5,8.5,6.1,11.5c4.4,3.7,10.6,5.4,16.8,4.9
			c11.7-1.1,20.7-10.3,19.8-20.4l0,0c-0.4-4.4-2.5-8.5-6.1-11.5C365,196.1,359.9,194.3,354.5,194.3z"/>
	</g>
	<g id="XMLID_1652_">
		<path class="st2" d="M353.2,234.9c-12.3,0-22.9-5.6-26.9-15.4c-5.6-14,4.5-31.4,22.7-38.7c8.8-3.5,18.1-4.2,26.2-1.9
			c8.1,2.3,14.2,7.3,16.9,14.2c2.7,6.8,1.9,14.6-2.4,21.9c-4.2,7.3-11.5,13.3-20.2,16.8C364.1,233.8,358.5,234.9,353.2,234.9z
			 M365.3,178.1c-5.2,0-10.7,1.1-16.1,3.2c-17.8,7.1-27.7,24.1-22.3,37.8c5.5,13.6,24.5,19,42.2,11.8c8.7-3.4,15.7-9.3,19.9-16.4
			c4.2-7.1,5.1-14.7,2.3-21.3l0,0c-2.6-6.6-8.5-11.5-16.4-13.7C372,178.6,368.7,178.1,365.3,178.1z"/>
	</g>
	<g id="XMLID_1651_">
		<path class="st3" d="M351.8,243c-21.5,0-39.4-11.9-41.3-28.5c-2.1-18.2,16.1-35.3,40.5-38c24.4-2.7,45.8,9.8,47.9,28.1l0,0
			c1,8.9-2.7,17.7-10.4,24.8c-7.7,7.1-18.3,11.8-30.1,13.1C356.1,242.9,353.9,243,351.8,243z M357.6,176.9c-2.2,0-4.3,0.1-6.5,0.4
			c-23.9,2.7-41.8,19.3-39.8,37.2c2,17.8,23.1,30.2,47.1,27.5c11.7-1.3,22.1-5.9,29.7-12.9c7.5-7,11.1-15.6,10.1-24.3l0,0
			C396.3,188.5,378.7,176.9,357.6,176.9z"/>
	</g>
	<g id="XMLID_1650_">
		<path class="st4" d="M373.8,238.9c-12.4,0-23.9-3.6-32.7-10.1c-8.8-6.6-13.6-15.3-13.6-24.6c0-19.1,20.8-34.8,46.3-34.8h0.1
			c12.4,0,23.9,3.6,32.7,10.1c8.8,6.6,13.6,15.3,13.6,24.6l0,0C420.3,223.2,399.5,238.8,373.8,238.9
			C373.9,238.9,373.8,238.9,373.8,238.9z M373.9,170.1C373.9,170.1,373.8,170.1,373.9,170.1c-25.3,0-45.8,15.3-45.7,34.1
			c0,9,4.8,17.6,13.4,24c8.7,6.4,20.1,9.9,32.2,9.9h0.1c25.2,0,45.7-15.4,45.7-34.1l0,0c0-9-4.8-17.6-13.4-24
			C397.6,173.7,386.1,170.1,373.9,170.1z"/>
	</g>
	<g id="XMLID_1649_">
		<path class="st5" d="M316.2,261.2c-21.3,0-41-6.7-54.6-18.8c-10.2-9-15.9-20.1-16.5-32.2c-1.7-30.7,30.4-57.7,71.6-60.4
			c23.8-1.5,46.2,5.2,61.1,18.6c10.2,9,15.9,20.1,16.5,32.2l0,0c1.7,30.7-30.4,57.7-71.6,60.4C320.6,261.2,318.4,261.2,316.2,261.2z
			 M323,150.3c-2.1,0-4.2,0.1-6.2,0.2c-40.8,2.6-72.6,29.4-71,59.6c0.6,11.8,6.3,22.9,16.3,31.7c14.6,13,37.4,20,60.7,18.4
			c40.8-2.6,72.6-29.4,71-59.6l0,0c-0.6-11.8-6.3-22.9-16.3-31.8C364.1,157.1,344,150.3,323,150.3z"/>
	</g>
	<g id="XMLID_1648_">
		<path class="st1" d="M332.9,240.5c-2.3,0-4.7-0.1-7-0.4c-17.6-1.6-33.8-9.5-43.3-21c-6.5-7.9-9.4-16.7-8.6-25.7
			c2.3-22.8,29.1-39,59.8-36.1c17.6,1.6,33.8,9.5,43.2,21c6.5,7.9,9.4,16.7,8.6,25.7l0,0C383.7,225,360.6,240.5,332.9,240.5z
			 M326.8,157.8c-27.4,0-50,15.2-52,35.9c-0.8,8.8,2.1,17.4,8.4,25.1c9.4,11.3,25.3,19.1,42.7,20.7c30.3,2.8,56.8-13.1,59-35.5
			c0.8-8.8-2.1-17.4-8.4-25.1c-9.3-11.3-25.3-19.1-42.7-20.7C331.5,157.9,329.2,157.8,326.8,157.8z"/>
	</g>
	<g id="XMLID_1647_">
		<path class="st6" d="M358.9,228.5c-12.1,0-21.9-6-22.9-14.4c-1.1-9.4,9.4-18.2,23.3-19.8s26,4.8,27.1,14.2l0,0
			c1.1,9.4-9.4,18.2-23.3,19.8C361.6,228.5,360.3,228.5,358.9,228.5z M363.4,194.9c-1.4,0-2.7,0.1-4.1,0.3
			c-13.5,1.5-23.7,10-22.7,19c1,8.9,12.8,15,26.3,13.5c13.5-1.5,23.7-10,22.7-19l0,0C384.7,200.5,375.2,194.9,363.4,194.9z"/>
	</g>
	<g id="XMLID_1646_">
		<path class="st3" d="M356,227.3c-4.7,0-9.1-1.5-12.5-4.3c-3.2-2.6-5.1-6.1-5.4-10c-0.7-8.9,7-16.8,17.1-17.7
			c5.4-0.5,10.7,1,14.5,4.2c3.2,2.6,5.1,6.1,5.4,10c0.7,8.9-7,16.8-17.1,17.7C357.4,227.2,356.7,227.3,356,227.3z M357.4,195.8
			c-0.6,0-1.3,0-2,0.1c-9.8,0.9-17.2,8.6-16.4,17c0.3,3.6,2.2,7,5.1,9.5c3.7,3.1,8.8,4.5,14,4.1c9.8-0.9,17.2-8.6,16.4-17l0,0
			c-0.3-3.6-2.2-7-5.1-9.5C366.1,197.3,361.8,195.8,357.4,195.8z"/>
	</g>
	<g id="XMLID_1645_">
		<path class="st7" d="M357.1,226.3c-4.9,0-9.6-1.6-13.2-4.5c-3.3-2.8-5.3-6.5-5.7-10.6c-0.8-9.3,7.3-17.7,18.1-18.7
			c5.7-0.5,11.3,1.1,15.3,4.4c3.3,2.8,5.3,6.5,5.7,10.6l0,0c0.8,9.3-7.3,17.7-18.1,18.7C358.5,226.3,357.8,226.3,357.1,226.3z
			 M358.5,193c-0.7,0-1.4,0-2.1,0.1c-10.4,1-18.2,9-17.4,18c0.4,3.9,2.3,7.4,5.4,10.1c3.9,3.3,9.3,4.8,14.7,4.2
			c10.4-1,18.2-9,17.4-18c-0.4-3.9-2.3-7.4-5.4-10.1C367.8,194.6,363.2,193,358.5,193z"/>
	</g>
	<g id="XMLID_1644_">
		<path class="st3" d="M357.7,217.9c-3.4,0-6.7-1.1-9.1-3.2c-2.3-1.9-3.7-4.5-4-7.3c-0.5-6.5,5.1-12.3,12.6-13
			c4-0.4,7.8,0.7,10.6,3.1c2.3,1.9,3.7,4.5,4,7.3c0.5,6.5-5.1,12.3-12.6,13C358.7,217.9,358.2,217.9,357.7,217.9z M358.6,195
			c-0.5,0-0.9,0-1.4,0.1c-7,0.6-12.4,6.1-11.9,12.2c0.3,2.6,1.5,5.1,3.7,6.9c2.6,2.2,6.3,3.3,10.1,2.9c7-0.6,12.4-6.1,11.9-12.2l0,0
			c-0.3-2.6-1.5-5.1-3.7-6.9C365,196.1,361.9,195,358.6,195z"/>
	</g>
	<g id="XMLID_1643_">
		<path class="st8" d="M351.7,237.2c-7.6,0-15.4-2.3-22.6-6.8c-9.2-6-15.8-15.1-17.9-24.9c-1.7-8.1-0.4-16.2,4-22.8
			c9.8-15,32.2-18.1,49.6-6.8c9.2,6,15.8,15.1,17.9,24.9c1.7,8.1,0.4,16.2-4,22.8C372.9,232.5,362.7,237.2,351.7,237.2z
			 M342.2,169.8c-10.7,0-20.7,4.6-26.4,13.3c-4.2,6.3-5.5,14.3-3.9,22.2c2.1,9.8,8.5,18.6,17.5,24.5c17.2,11,39,8.1,48.6-6.6
			c4.2-6.3,5.5-14.3,3.9-22.2c-2.1-9.8-8.5-18.6-17.5-24.5C357.4,172.1,349.6,169.8,342.2,169.8z"/>
	</g>
	<g id="XMLID_1642_">
		<path class="st8" d="M358.3,220.1c-3.1,0-6.3-0.9-9.2-2.8c-3.8-2.4-6.4-6.1-7.3-10.2c-0.7-3.3-0.1-6.7,1.6-9.3
			c4.1-6.1,13.1-7.4,20.3-2.8c3.8,2.4,6.4,6.1,7.3,10.2c0.7,3.3,0.1,6.7-1.6,9.3l0,0C366.9,218.2,362.8,220.1,358.3,220.1z
			 M354.5,193c-4.2,0-8.2,1.8-10.5,5.2c-1.6,2.5-2.2,5.6-1.5,8.8c0.8,3.9,3.3,7.4,7,9.8c6.9,4.4,15.4,3.3,19.3-2.6
			c1.6-2.5,2.2-5.6,1.5-8.8c-0.8-3.9-3.3-7.4-7-9.8C360.5,193.9,357.5,193,354.5,193z"/>
	</g>
	<g id="XMLID_1641_">
		<path class="st3" d="M321.2,269.3c-11.9,0-23.2-2.6-32.7-8.1c-12.7-7.4-20.6-18.8-22.9-33.1c-3-19.3,4.9-40.9,21.7-59.4
			c30.1-33.1,79.6-45.6,110.3-27.8l0,0c12.7,7.4,20.6,18.8,22.9,33.1c3,19.3-4.9,40.9-21.7,59.4C378,256.3,348,269.3,321.2,269.3z
			 M364.9,133.4c-26.5,0-56.4,12.9-77,35.7c-16.6,18.3-24.5,39.7-21.5,58.8c2.2,14.1,9.9,25.3,22.5,32.6
			c30.4,17.6,79.5,5.2,109.4-27.6c16.6-18.3,24.5-39.7,21.5-58.8c-2.2-14.1-9.9-25.3-22.5-32.6l0,0
			C387.9,136.1,376.7,133.4,364.9,133.4z"/>
	</g>
	<g id="XMLID_1640_">
		<path class="st9" d="M297.4,290c-11.9,0-23.2-2.6-32.7-8.1c-12.7-7.4-20.6-18.8-22.9-33.1c-3-19.3,4.9-40.9,21.7-59.4
			c30.1-33.1,79.6-45.6,110.3-27.8c12.7,7.4,20.6,18.8,22.9,33.1c3,19.3-4.9,40.9-21.7,59.4C354.2,277,324.1,290,297.4,290z
			 M341,154.1c-26.5,0-56.4,12.9-77,35.7c-16.6,18.3-24.5,39.7-21.5,58.8c2.2,14.1,9.9,25.3,22.5,32.6c9.4,5.4,20.6,8,32.3,8
			c26.5,0,56.4-12.9,77-35.7c16.6-18.3,24.5-39.7,21.5-58.8c-2.2-14.1-9.9-25.3-22.5-32.6l0,0C364.1,156.7,352.9,154.1,341,154.1z"
			/>
	</g>
	<g id="XMLID_1639_">
		<path class="st1" d="M307.2,285.4c-9.8,0-19.1-1.8-27.6-5.7c-14.5-6.5-24.7-18.3-28.6-33.3c-5.1-19.2,0-41.7,14.3-61.7
			c26.3-36.9,75.4-54.2,109.6-38.7l0,0c14.5,6.5,24.7,18.3,28.6,33.3c5.1,19.2,0,41.7-14.3,61.7
			C369.5,268.7,336.8,285.4,307.2,285.4z M347.2,141.1c-29.4,0-61.8,16.6-81.4,44.1c-14.1,19.8-19.2,42-14.1,61.1
			c4,14.7,14,26.4,28.3,32.9c33.9,15.4,82.6-2,108.7-38.5c14.1-19.8,19.2-42,14.1-61.1c-4-14.7-14-26.4-28.3-32.9
			C366.1,142.9,356.8,141.1,347.2,141.1z"/>
	</g>
	<g id="XMLID_1638_">
		<path class="st9" d="M305.2,303.5c-43.6,0-80.8-15.3-94.7-42.5c-7-13.9-7.4-29.7-0.9-45.7c11.8-29.2,44.3-55.1,86.8-69.5
			c67.8-23,139.7-8.9,160.3,31.5l0,0c7,13.9,7.4,29.7,0.9,45.7c-11.8,29.2-44.3,55.1-86.8,69.5C348.7,299.9,326.1,303.5,305.2,303.5
			z M362,135.3c-21,0-43.4,3.5-65.5,11c-42.3,14.4-74.5,40.2-86.3,69.2c-6.4,15.7-6.1,31.3,0.9,45.1c20.4,40.1,91.9,54.1,159.4,31.2
			c42.3-14.4,74.5-40.2,86.3-69.2c6.4-15.7,6.1-31.3-0.9-45.1l0,0C442.3,150.5,405.3,135.3,362,135.3z"/>
	</g>
	<g id="XMLID_1637_">
		<path class="st10" d="M311.9,289.2c-8.4,0-16.6-1.1-24.7-3.4c-22-6.3-39.4-21-48.9-41.5c-11.4-24.5-10.5-55,2.5-83.6
			c24.7-54.5,85.5-87.2,135.8-72.8l0,0c22,6.3,39.4,21,48.9,41.5c11.4,24.6,10.5,55-2.5,83.6C402.3,258.8,355.9,289.2,311.9,289.2z
			 M352,85.1c-43.8,0-89.9,30.3-110.5,75.9c-12.8,28.5-13.7,58.7-2.5,83c9.4,20.2,26.6,34.9,48.4,41.1
			c49.9,14.3,110.4-18.2,134.9-72.4c12.8-28.5,13.7-58.7,2.5-83c-9.4-20.3-26.6-35-48.4-41.2C368.5,86.2,360.3,85.1,352,85.1z"/>
	</g>
	<g id="XMLID_1636_">
		<path class="st1" d="M312.9,269.2c-55.3,0-101.2-25.6-105.9-61.1c-1.8-13.4,2.4-26.9,12.3-39.3c18.2-22.8,52.4-38.6,91.7-42.2
			c62.5-5.8,117.6,21.2,122.8,60.3l0,0c1.8,13.4-2.4,26.9-12.3,39.3c-18.2,22.8-52.4,38.6-91.7,42.2
			C324.1,268.9,318.4,269.2,312.9,269.2z M327.8,126.7c-5.5,0-11.1,0.3-16.8,0.8c-39.1,3.6-73.2,19.3-91.2,41.9
			c-9.7,12.2-13.9,25.6-12.1,38.7c5.1,38.7,59.9,65.5,122,59.7c39.1-3.6,73.2-19.3,91.2-41.9c9.7-12.2,13.9-25.6,12.1-38.7
			C428.4,152,382.8,126.7,327.8,126.7z"/>
	</g>
	<g id="XMLID_1635_">
		<path class="st7" d="M320.5,249.8c-37.2,0-68.8-15.4-76.2-39.7c-3.3-10.7-1.6-22.1,4.8-33c11.5-19.6,36.6-35.1,67-41.7
			c49-10.5,96.5,6,105.8,36.6c3.3,10.7,1.6,22.1-4.8,33c-11.5,19.6-36.6,35.1-67,41.7C340.1,248.8,330.1,249.8,320.5,249.8z
			 M345.7,133.4c-9.5,0-19.4,1-29.4,3.2c-30.2,6.4-54.9,21.9-66.3,41.1c-6.2,10.6-7.9,21.7-4.7,32.1c7.3,23.8,38.4,38.9,75.1,38.9
			c9.5,0,19.4-1,29.4-3.2c30.2-6.4,54.9-21.9,66.3-41.1c6.2-10.6,7.9-21.7,4.7-32.1l0,0C413.5,148.4,382.5,133.4,345.7,133.4z"/>
	</g>
	<g id="XMLID_1634_">
		<path class="st3" d="M302.3,253.3c-32.2,0-67.5-8-100.1-24.6c-44.9-22.8-76.7-57.6-85.2-93.4c-5.1-21.9-1.3-42.5,11.4-59.6
			c34.2-46.3,123.1-53.1,198-15.2c44.9,22.8,76.7,57.6,85.2,93.4c5.1,21.9,1.3,42.5-11.4,59.6l0,0
			C380.9,239.7,344.1,253.3,302.3,253.3z M226.3,36.7c-41.6,0-78.1,13.5-97.4,39.5c-12.5,16.9-16.3,37.3-11.2,59
			c8.4,35.6,40.1,70.3,84.7,92.9c74.6,37.8,163,31.2,197.2-14.9l0,0c12.5-16.9,16.4-37.3,11.3-59c-8.4-35.6-40.1-70.3-84.7-92.9
			C293.6,44.7,258.5,36.7,226.3,36.7z"/>
	</g>
	<g id="XMLID_1633_">
		<path class="st5" d="M411.3,323c-8.2,0-16.6-0.4-25.1-1.2c-59.6-5.4-111.5-29.2-138.6-63.5c-14.6-18.4-20.9-38.7-18-58.8
			c8.3-58.7,92-99.5,186.6-91c59.6,5.4,111.5,29.2,138.6,63.5c14.6,18.4,20.9,38.7,18,58.8l0,0C565.3,284.4,495.2,323,411.3,323z
			 M391.1,108.2c-83.5,0-153.3,38.4-160.8,91.5c-2.8,19.8,3.3,39.9,17.9,58.3c27.1,34.1,78.7,57.8,138.1,63.2
			c94.3,8.6,177.7-32,185.9-90.3c2.8-19.8-3.3-39.9-17.9-58.3c-27.1-34.1-78.7-57.8-138.1-63.2C407.7,108.6,399.3,108.2,391.1,108.2
			z"/>
	</g>
	<g id="XMLID_1632_">
		<path class="st5" d="M294.2,306.7c-65.4,0-120.8-26-135.5-68.6c-6.6-19.2-4.3-40,6.7-60.2c20-36.6,65.2-66.5,121.1-80.1
			c89.6-21.9,178,5.6,197.2,61c6.6,19.2,4.3,40-6.7,60.2c-20,36.7-65.3,66.6-121.1,80.2C334.9,304.2,314,306.7,294.2,306.7z
			 M348.3,91.2c-19.9,0-40.6,2.4-61.6,7.5C230.9,112.2,185.9,142,166,178.4c-10.9,20-13.2,40.6-6.7,59.5
			c19,55.1,107,82.3,196.3,60.5c55.7-13.5,100.8-43.4,120.7-79.8c10.9-20,13.2-40.6,6.7-59.5C468.4,117,413.3,91.2,348.3,91.2z"/>
	</g>
	<g id="XMLID_1631_">
		<path class="st10" d="M390.3,312.5c-10.4,0-21-0.7-31.8-2.2c-87.3-11.6-156.6-67.2-154.4-124.2l0,0c0.8-20,10.3-38.2,27.5-52.7
			c30.5-25.7,80.9-36.8,134.9-29.6c87.3,11.6,156.6,67.2,154.4,124.2c-0.7,20-10.3,38.2-27.5,52.7
			C469.1,301.3,431.9,312.5,390.3,312.5z M204.9,186.3c-2.2,56.5,66.8,111.9,153.8,123.4c10.7,1.4,21.4,2.1,31.7,2.1
			c41.4,0,78.4-11.1,102.7-31.6c17.1-14.4,26.5-32.4,27.2-52.1c2.2-56.5-66.8-111.9-153.8-123.4c-53.8-7.1-104,3.9-134.4,29.5
			C215,148.4,205.6,166.5,204.9,186.3L204.9,186.3z"/>
	</g>
	<g id="XMLID_1630_">
		<path class="st1" d="M377.1,292c-12.2,0-24.7-1.1-37.5-3.3c-47.1-8.1-86.5-30.3-105.4-59.4c-10.2-15.7-13.5-32.5-9.5-48.4
			c11.7-46.4,82.4-73.6,157.4-60.6c47.1,8.1,86.5,30.3,105.4,59.4c10.2,15.7,13.5,32.5,9.5,48.4C487.3,266.7,436.9,292,377.1,292z
			 M344.7,117.7c-59.4,0-109.6,25.1-119.2,63.3c-4,15.7-0.7,32.2,9.4,47.8c18.8,28.9,58,51,104.9,59.2c74.7,12.9,145-14,156.6-60.1
			c4-15.7,0.7-32.2-9.4-47.8c-18.8-28.9-58-51-104.9-59.2C369.4,118.8,356.8,117.7,344.7,117.7z"/>
	</g>
	<g id="XMLID_1629_">
		<path class="st3" d="M337.9,268.5c-17.9,0-36.7-4.2-53.8-12.8c-24.6-12.5-41.6-31.9-46.7-53.5c-3.8-16-0.7-31.3,9-44.4
			c23.4-31.6,78.2-39.1,122.4-16.8c24.6,12.5,41.6,31.9,46.7,53.5c3.8,16,0.7,31.3-9,44.4l-0.3-0.2l0.3,0.2
			C392.1,258.1,366,268.5,337.9,268.5z M314.8,128.7c-28,0-53.8,10.2-67.9,29.4c-9.6,12.9-12.6,28.1-8.9,43.9
			c5.1,21.3,21.9,40.6,46.3,53c17.1,8.6,35.7,12.7,53.5,12.7c28,0,53.8-10.2,67.9-29.4c9.6-12.9,12.6-28.1,8.9-43.9
			c-5.1-21.3-21.9-40.6-46.3-53C351.3,132.9,332.6,128.7,314.8,128.7z"/>
	</g>
	<g id="XMLID_1628_">
		<path class="st1" d="M606.1,207.6c-3.7,0-7.3-1.3-9.9-3.5c-2.4-2.1-4-5-4.2-7.9l0,0c-0.5-7,5.6-13.2,13.6-13.9
			c4.2-0.4,8.4,0.9,11.4,3.4c2.4,2.1,4,5,4.2,7.9c0.5,7-5.6,13.2-13.6,13.9C607.1,207.6,606.6,207.6,606.1,207.6z M592.7,196
			c0.2,2.9,1.6,5.5,4,7.5c2.9,2.4,6.9,3.6,10.9,3.3c7.7-0.6,13.5-6.6,13-13.2c-0.2-2.9-1.6-5.5-4-7.5c-2.9-2.4-6.9-3.6-10.9-3.3
			C598,183.6,592.2,189.4,592.7,196L592.7,196z"/>
	</g>
	<g id="XMLID_1627_">
		<path class="st3" d="M593.1,218.9c-6.3,0-12.3-1.5-17.2-4.4c-6-3.5-9.6-8.8-10.2-14.6l0,0c-1.3-12.1,10.8-23.2,26.9-24.9
			c16.1-1.6,30.2,6.8,31.4,18.9c0.6,5.9-1.9,11.7-7,16.3s-12.2,7.7-20,8.5C595.8,218.8,594.5,218.9,593.1,218.9z M596.7,175.4
			c-1.3,0-2.6,0.1-4,0.2c-15.7,1.6-27.5,12.5-26.3,24.1l0,0c0.5,5.6,4.1,10.7,9.8,14.1c5.8,3.4,13.2,5,20.8,4.2s14.5-3.7,19.5-8.3
			c5-4.5,7.3-10.1,6.8-15.8C622.3,183.2,610.7,175.4,596.7,175.4z"/>
	</g>
	<g id="XMLID_1626_">
		<path class="st3" d="M604.1,208.3c-7.4,0-13.5-4.2-14.1-9.8l0,0c-0.6-6.2,5.6-12,13.8-12.8c4-0.5,7.9,0.4,10.9,2.2
			c3.1,1.8,5,4.5,5.2,7.6c0.3,3.1-1,6.1-3.6,8.5s-6.2,4-10.2,4.3C605.6,208.3,604.9,208.3,604.1,208.3z M590.8,198.4
			c0.6,5.9,7.5,9.9,15.4,9.1c3.8-0.4,7.3-1.9,9.8-4.2c2.4-2.3,3.7-5.1,3.3-7.9c-0.3-2.8-2.1-5.3-4.9-7c-2.9-1.7-6.6-2.4-10.5-2.1
			C596.1,187.2,590.1,192.6,590.8,198.4L590.8,198.4z"/>
	</g>
	<g id="XMLID_1622_">
		<path class="st1" d="M580.6,220.5c-12.9,0-23.8-6.6-26.1-16.7l0,0c-1.3-6,0.6-12.2,5.3-17.6c4.7-5.4,11.7-9.3,19.5-11
			c7.9-1.7,15.8-1,22.4,1.9c6.5,3,10.8,7.9,12.2,13.8c2.7,12.3-8.5,25.1-24.8,28.7C586.2,220.2,583.4,220.5,580.6,220.5z
			 M555.3,203.7c2.6,11.8,17.7,18.7,33.7,15.3c16-3.4,26.9-16,24.3-27.8c-1.3-5.7-5.4-10.5-11.7-13.4s-14.2-3.5-21.9-1.9
			c-7.8,1.7-14.5,5.5-19.1,10.8C555.8,191.9,554,197.9,555.3,203.7L555.3,203.7z"/>
	</g>
	<g id="XMLID_1621_">
		<path class="st7" d="M594.2,219c-2.5,0-5-0.4-7.2-1c-5.5-1.6-9.6-5.1-11.2-9.7l0,0c-3.5-9.5,3.9-21,16.5-25.7
			c12.6-4.7,25.7-0.7,29.3,8.8c1.7,4.6,0.9,9.8-2.3,14.6c-3.2,4.8-8.2,8.7-14.3,10.9C601.4,218.2,597.7,219,594.2,219z M603,181.4
			c-3.3,0-7,0.6-10.5,1.9c-12.3,4.5-19.5,15.6-16.1,24.7l0,0c1.6,4.4,5.4,7.7,10.7,9.2c5.3,1.6,11.6,1.3,17.5-1
			c6-2.2,10.9-6,13.9-10.7c3-4.7,3.8-9.7,2.2-14C618.4,185.1,611.4,181.4,603,181.4z"/>
	</g>
	<g id="XMLID_1620_">
		<path class="st5" d="M589.2,220L589.2,220c-8.3,0-16.1-2.4-21.9-6.8c-5.9-4.4-9.1-10.3-9.1-16.5s3.3-12.1,9.1-16.5
			c5.9-4.4,13.6-6.8,21.9-6.8l0,0c8.3,0,16.1,2.4,21.9,6.8c5.9,4.4,9.1,10.3,9.1,16.5c0,6.2-3.3,12.1-9.1,16.5
			C605.4,217.6,597.5,220,589.2,220z M589.2,174.1c-8.1,0-15.8,2.3-21.5,6.7c-5.7,4.2-8.9,9.9-8.9,16l0,0c0,6.1,3.2,11.7,8.9,16
			c5.8,4.3,13.4,6.7,21.6,6.7l0,0c8.1,0,15.8-2.3,21.5-6.7c5.7-4.2,8.9-9.9,8.9-16c0-6.1-3.2-11.7-8.9-16
			C605,176.4,597.4,174.1,589.2,174.1L589.2,174.1z"/>
	</g>
	<g id="XMLID_1618_">
		<path class="st4" d="M593.5,223.4c-0.1,0-0.2,0-0.3,0c-8.1-0.1-15.8-2.5-21.6-6.9c-5.8-4.3-8.9-10.2-8.9-16.3l0,0
			c0.1-12.6,13.7-22.8,30.5-22.8c0.1,0,0.2,0,0.3,0c8.1,0.1,15.8,2.5,21.6,6.9c5.8,4.4,8.9,10.2,8.9,16.3c0,6.1-3.3,11.9-9.1,16.2
			C609.1,221,601.5,223.4,593.5,223.4z M563.4,200.2c0,6,3,11.5,8.6,15.7s13.1,6.7,21.1,6.7c0.1,0,0.2,0,0.3,0
			c7.9,0,15.4-2.3,21-6.4c5.7-4.2,8.8-9.7,8.9-15.6c0-6-3-11.5-8.6-15.7s-13.1-6.7-21.1-6.7c-0.1,0-0.2,0-0.3,0
			C576.8,178.1,563.5,188,563.4,200.2L563.4,200.2z"/>
	</g>
	<g id="XMLID_1617_">
		<path class="st6" d="M600.2,207.1c-3.5,0-6.8-0.7-9.5-2.2c-3.4-1.8-5.4-4.4-5.8-7.5c-0.3-3.1,1.2-6.1,4.2-8.5
			c2.9-2.4,7-4,11.4-4.5c4.4-0.5,8.8,0.3,12.1,2.1c3.4,1.8,5.4,4.4,5.8,7.5c0.6,6.2-6.3,12-15.5,13
			C602,207.1,601.2,207.1,600.2,207.1z M603.1,185.1c-0.8,0-1.6,0-2.5,0.1c-4.3,0.5-8.2,2-11,4.3c-2.8,2.3-4.2,5.1-3.9,7.9l0,0
			c0.3,2.8,2.2,5.2,5.4,7s7.4,2.4,11.7,2c8.9-0.9,15.5-6.4,14.9-12.2c-0.3-2.8-2.2-5.2-5.4-7C609.6,185.8,606.5,185.1,603.1,185.1z"
			/>
	</g>
	<g id="XMLID_1616_">
		<path class="st1" d="M604.5,215.4c-7.4,0-14.3-4.3-17.2-11.6l0,0c-3.7-9.4,1.1-20.1,10.6-23.8c4.6-1.8,9.7-1.7,14.2,0.2
			c4.5,1.9,8,5.5,9.8,10c3.7,9.4-1.1,20.1-10.6,23.8C609.1,214.9,606.8,215.4,604.5,215.4z M588.1,203.5c3.5,9,13.9,13.5,23,9.8
			c9.1-3.6,13.7-13.8,10.2-22.9c-1.7-4.3-5.1-7.8-9.4-9.7c-4.3-1.9-9.2-1.9-13.6-0.2C589.1,184.3,584.5,194.5,588.1,203.5
			L588.1,203.5z"/>
	</g>
	<g id="XMLID_1615_">
		<path class="st2" d="M591,213.9c-12.7,0-23-7.9-23.2-17.8l0,0c-0.2-10,10.2-18.3,23.1-18.5c0.2,0,0.4,0,0.5,0
			c12.7,0,23,7.9,23.2,17.8c0.1,4.9-2.3,9.5-6.7,13c-4.3,3.5-10.2,5.4-16.4,5.6C591.3,213.9,591.1,213.9,591,213.9z M568.5,196.1
			c0.2,9.6,10.5,17.3,23,17.1c6.1-0.1,11.7-2,16-5.4c4.2-3.3,6.5-7.8,6.4-12.4c-0.2-9.6-10.5-17.3-23-17.1
			C578.4,178.5,568.4,186.5,568.5,196.1L568.5,196.1z"/>
	</g>
	<g id="XMLID_1614_">
		<path class="st7" d="M604.7,210.5c-4.1,0-7.9-1.4-10.7-3.8c-2.7-2.3-4.2-5.3-4.5-8.6c-0.5-7.5,6.1-14.3,14.7-15
			c4.6-0.4,9.1,1,12.4,3.7c2.7,2.3,4.2,5.3,4.5,8.6c0.5,7.5-6.1,14.3-14.7,15C605.8,210.4,605.2,210.5,604.7,210.5z M605.8,183.7
			c-0.5,0-1,0-1.5,0.1c-8.3,0.7-14.6,7.1-14.1,14.3l0,0c0.3,3.1,1.7,6,4.2,8.1c3.1,2.6,7.4,3.9,11.8,3.5c8.3-0.7,14.6-7.1,14.1-14.3
			c-0.3-3.1-1.7-6-4.2-8.1C613.3,185,609.6,183.7,605.8,183.7z"/>
	</g>
	<g id="XMLID_1576_">
		<path class="st8" d="M603.1,204.1c-3.2,0-6.1-1.1-8.4-2.9c-2.1-1.8-3.3-4.2-3.5-6.7l0,0c-0.5-5.9,4.7-11.1,11.5-11.7
			c3.6-0.3,7,0.7,9.6,2.9c2.1,1.8,3.3,4.2,3.5,6.7c0.5,5.9-4.7,11.1-11.5,11.7C604,204.1,603.5,204.1,603.1,204.1z M604,183.4
			c-0.4,0-0.8,0-1.2,0.1c-6.4,0.5-11.2,5.4-10.8,10.9c0.2,2.3,1.4,4.6,3.3,6.2c2.3,2,5.7,3,9,2.7c6.4-0.5,11.2-5.4,10.8-10.9
			c-0.2-2.3-1.4-4.6-3.3-6.2C609.7,184.4,606.9,183.4,604,183.4z"/>
	</g>
	<g id="XMLID_1574_">
		<path class="st3" d="M603.3,217c-5.3,0-10.4-1.7-14.1-5c-3.5-3-5.6-7-6-11.3c-0.8-9.8,7.9-18.7,19.3-19.7
			c6.1-0.5,11.9,1.3,16.2,4.9c3.5,3,5.6,7,6,11.3c0.8,9.8-7.9,18.7-19.3,19.7C604.8,217,604,217,603.3,217z M604.8,181.8
			c-0.6,0-1.4,0-2,0.1c-11,1-19.4,9.5-18.7,19l0,0c0.4,4.1,2.3,7.9,5.7,10.7c4.1,3.5,9.8,5.1,15.6,4.7c11-1,19.4-9.5,18.7-19
			c-0.4-4.1-2.3-7.9-5.7-10.7C614.7,183.4,609.8,181.8,604.8,181.8z"/>
	</g>
	<g id="XMLID_1573_">
		<path class="st7" d="M567.6,234.2c-3.7,0-7.4-0.5-10.8-1.6l0,0c-8.5-2.7-15-8.7-18.3-16.7c-4-9.7-3.1-21.4,2.4-32.2
			c10.6-20.7,34.9-32.5,54.1-26.3c8.5,2.7,15,8.7,18.3,16.7c4,9.7,3.1,21.4-2.4,32.2C602.2,223.3,584.4,234.2,567.6,234.2z
			 M557,231.9c19,6.1,42.8-5.5,53.2-25.9c5.4-10.7,6.3-22.2,2.4-31.7c-3.3-7.9-9.6-13.6-17.9-16.3c-19-6.1-42.8,5.5-53.2,25.9
			c-5.4,10.7-6.3,22.2-2.4,31.6C542.4,223.4,548.8,229.2,557,231.9L557,231.9z"/>
	</g>
	<g id="XMLID_1571_">
		<path class="st3" d="M554.4,239.8c-29.2,0-54.1-10.3-63.1-28.5l0,0c-4.6-9.2-4.7-19.7-0.4-30.2c7.9-19.1,29.4-36,57.4-45.3
			c44.8-14.8,92-5.1,105.3,21.7c4.6,9.2,4.7,19.7,0.4,30.2c-7.9,19.1-29.4,36-57.5,45.3C582.4,237.6,567.9,239.8,554.4,239.8z
			 M491.9,210.9c13.2,26.5,60.1,35.9,104.5,21.3c27.8-9.2,49.1-26,57.1-44.9c4.2-10.3,4.2-20.5-0.4-29.5
			c-13.2-26.5-60.1-35.9-104.5-21.3c-27.8,9.2-49.1,26-57.1,44.9C487.3,191.6,487.4,201.9,491.9,210.9L491.9,210.9z"/>
	</g>
	<g id="XMLID_1564_">
		<path class="st10" d="M560.1,272.9c-5.7,0-11.3-0.7-16.7-2.3l0,0c-14.5-4.2-25.8-14.1-32-27.6c-7.3-16.3-6.6-36.3,2.1-55.1
			c16.5-35.8,56.8-57,89.8-47.2c14.5,4.2,25.8,14.1,32,27.6c7.3,16.3,6.6,36.3-2.1,55.1C619.4,253.2,589,272.9,560.1,272.9z
			 M543.6,269.8c32.6,9.7,72.5-11.4,89-46.8c8.6-18.6,9.4-38.4,2.1-54.5c-6.1-13.4-17.3-23-31.5-27.3c-32.7-9.7-72.5,11.4-89,46.8
			c-8.6,18.6-9.4,38.4-2.1,54.5C518.1,255.9,529.3,265.6,543.6,269.8L543.6,269.8z"/>
	</g>
	<g id="XMLID_1551_">
		<path class="st1" d="M572.8,250.3c-38.1,0-69.8-17.8-72.9-42.3l0,0c-1.2-9.1,1.8-18.3,8.6-26.7c12.5-15.4,35.9-25.9,62.7-28.2
			c42.6-3.6,80,15.2,83.4,41.8c1.2,9.1-1.8,18.3-8.6,26.7c-12.5,15.4-35.9,25.9-62.7,28.2C579.7,250.2,576.2,250.3,572.8,250.3z
			 M500.6,208c3.3,26.3,40.3,44.8,82.6,41.2c26.6-2.3,49.9-12.7,62.2-28c6.6-8.2,9.6-17.3,8.4-26.2c-3.3-26.3-40.4-44.8-82.6-41.2
			c-26.6,2.3-49.9,12.7-62.2,28C502.4,190,499.5,199,500.6,208L500.6,208z"/>
	</g>
	<g id="XMLID_1547_">
		<path class="st7" d="M564.8,241.6c-24.9,0-46-10.4-50.9-26.7l0,0c-2.1-7.1-1-14.6,3.3-21.9c7.7-12.8,24.3-23,44.4-27.1
			c32.3-6.6,63.6,4.5,69.5,24.7c2.1,7.1,0.9,14.6-3.3,21.9c-7.7,12.8-24.3,23-44.4,27.1C577.1,240.9,570.9,241.6,564.8,241.6z
			 M580.5,165.1c-6.1,0-12.3,0.6-18.5,1.9c-19.8,4.1-36.1,14-43.6,26.6c-4.2,6.9-5.2,14.1-3.3,20.9l0,0
			c5.9,19.7,36.4,30.4,68.2,23.9c19.8-4.1,36.1-14,43.6-26.6c4.2-6.9,5.2-14.1,3.3-20.9C625.4,175.3,604.9,165.1,580.5,165.1z"/>
	</g>
	<g id="XMLID_1546_">
		<path class="st5" d="M575.7,249.6c-26.1,0-48.6-9.7-56.8-26.7c-4.2-8.8-4.3-18.7-0.2-28.5c7.2-17.1,25.8-32.1,49.9-40.2
			c39.4-13.2,81.1-3.9,93,20.7c4.2,8.8,4.3,18.7,0.2,28.5c-7.1,17.1-25.8,32.1-49.9,40.2C599.7,247.6,587.3,249.6,575.7,249.6z
			 M604.9,148.8c-11.6,0-23.9,1.9-36,6c-23.9,8-42.5,22.9-49.5,39.7c-4.1,9.7-4.1,19.3,0.1,28c11.7,24.3,53.1,33.4,92.1,20.3
			c23.9-8,42.5-22.9,49.5-39.7c4.1-9.7,4.1-19.3-0.1-28C652.9,158.4,630.7,148.8,604.9,148.8z"/>
	</g>
	<g id="XMLID_1540_">
		<path class="st1" d="M606.6,264.2c-18.8,0-39-3.7-58.4-11.5c-33-13.1-57.7-35.4-66.1-59.7c-4.9-14.2-3.9-28,3.1-39.9l0,0
			c19.3-33.3,78.9-43,133-21.5c33,13.1,57.7,35.4,66.1,59.7c4.9,14.2,3.9,28-3.1,39.9C668.7,252.6,639.8,264.2,606.6,264.2z
			 M485.6,153.6L485.6,153.6c-6.8,11.7-7.9,25.4-3,39.4c8.3,24,32.9,46.2,65.7,59.3c53.7,21.4,113,11.8,132-21.2
			c6.8-11.7,7.9-25.4,3-39.3c-8.3-24-32.9-46.2-65.7-59.3C564,110.9,504.8,120.5,485.6,153.6L485.6,153.6z"/>
	</g>
	<g id="XMLID_1539_">
		<path class="st10" d="M572.3,261.5c-7.2,0-14.6-0.5-22.2-1.6c-57.4-8-102.7-45.2-100.9-82.6c0.6-13.2,7-25.1,18.4-34.6
			c20.2-16.7,53.5-23.8,89-18.8c57.4,8,102.7,45.2,100.9,82.6l0,0c-0.6,13.2-7,25.1-18.4,34.6C623.2,254.4,599.2,261.5,572.3,261.5z
			 M534.4,123.1c-26.6,0-50.5,7.1-66.3,20.2c-11.3,9.3-17.5,21.1-18.2,34.1c-1.7,37.1,43.3,73.8,100.3,81.8c35.3,5,68.4-2,88.4-18.6
			c11.3-9.3,17.5-21.1,18.2-34.1c1.7-37.1-43.3-73.8-100.3-81.8C548.9,123.7,541.5,123.1,534.4,123.1z"/>
	</g>
	<g id="XMLID_1533_">
		<path class="st3" d="M590.1,244.9c-17,0-34.7-4-50.8-12.3c-22.8-11.7-38.4-30.2-43.1-50.5c-3.5-15.4-0.2-30.8,9.3-43.4l0,0
			c22.8-30.3,75.1-37.6,116.4-16.2c22.8,11.7,38.4,30.2,43.1,50.5c3.5,15.4,0.2,30.8-9.3,43.4C641.9,235,616.9,244.9,590.1,244.9z
			 M571.3,110.9c-26.6,0-51.3,9.8-65.1,28.2l0,0c-9.4,12.5-12.6,27.6-9.1,42.8c4.6,20.1,20.1,38.4,42.7,50
			c41.1,21.2,92.9,14.1,115.5-16c9.4-12.5,12.6-27.6,9.1-42.8c-4.6-20.1-20.1-38.4-42.7-50C605.8,114.9,588.1,110.9,571.3,110.9z"/>
	</g>
	<g id="XMLID_1532_">
		<path class="st3" d="M584.9,244.4c-12,0-24.6-2.8-35.9-8.8c-16.1-8.3-27.2-21.2-30.4-35.5c-2.4-10.6-0.3-20.7,6.1-29.3l0,0
			c15.5-20.7,51.8-25.4,80.7-10.4c16.1,8.3,27.2,21.2,30.4,35.5c2.4,10.6,0.3,20.7-6.1,29.3C620.2,237.8,603.2,244.4,584.9,244.4z
			 M525.2,171.3c-6.3,8.4-8.4,18.3-6.1,28.7c3.2,14,14.2,26.7,30.1,35c28.6,14.8,64.4,10.2,79.8-10.2c6.3-8.4,8.4-18.3,6.1-28.7
			c-3.2-14-14.2-26.7-30.1-35C576.3,146.4,540.5,150.9,525.2,171.3L525.2,171.3z"/>
	</g>
	<g id="XMLID_1531_">
		<path class="st5" d="M556.2,235.8c-9,0-17.6-2-24.7-6.2l0,0c-9.3-5.5-15.1-14.1-16.6-24.7c-2.1-14.3,4-30.3,16.5-43.7
			c22.5-24.2,59.2-33.1,81.6-19.6c9.3,5.5,15.1,14.1,16.6,24.7c2.1,14.3-4,30.3-16.5,43.7C597.6,226.5,575.7,235.8,556.2,235.8z
			 M588.2,136c-19.3,0-41.1,9.3-56.4,25.7c-12.5,13.4-18.4,29.1-16.3,43.2c1.4,10.3,7.1,18.7,16.3,24.1l0,0
			c22.2,13.2,58.4,4.5,80.7-19.5c12.5-13.4,18.4-29.1,16.3-43.2c-1.4-10.3-7.1-18.7-16.3-24.1C605.7,138,597.2,136,588.2,136z"/>
	</g>
</g>
</svg>
