<?xml version="1.0" encoding="utf-8"?>
<!-- Generator: Adobe Illustrator 21.1.0, SVG Export Plug-In . SVG Version: 6.00 Build 0)  -->
<svg version="1.1" id="Layer_1" xmlns="http://www.w3.org/2000/svg" xmlns:xlink="http://www.w3.org/1999/xlink" x="0px" y="0px"
	 width="794px" height="481px" viewBox="0 0 794 481" style="enable-background:new 0 0 794 481;" xml:space="preserve">
<style type="text/css">
	.st0{fill:#3FBCBC;}
	.st1{fill:#E12926;}
	.st2{fill:#A8CF43;}
	.st3{fill:#DF2924;}
	.st4{fill:#004E9D;}
</style>
<g id="XMLID_1656_">
	<g id="XMLID_1692_">
		<path class="st0" d="M257.8,251.2c-6.3,0-12.8-0.7-19.4-2.2c-15-3.3-28.3-10.1-37.4-19.1c-9.2-9-13.1-19.2-11-28.6
			c2.1-9.4,9.9-17,22-21.2c12.1-4.3,27-4.8,42-1.4c15,3.3,28.3,10.1,37.4,19.1c9.2,9,13.1,19.2,11,28.6c-2.1,9.4-9.9,17-22.1,21.2
			C273.6,250,265.9,251.2,257.8,251.2z M234.8,177.1c-8,0-15.7,1.2-22.4,3.6c-11.9,4.2-19.6,11.6-21.7,20.8l0,0
			c-2,9.2,1.8,19.2,10.8,28c9,8.9,22.2,15.6,37.1,18.9c14.9,3.3,29.7,2.8,41.6-1.4c11.9-4.2,19.6-11.6,21.7-20.8
			c2.1-9.2-1.8-19.2-10.8-28c-9.1-8.9-22.2-15.6-37.1-18.9C247.5,177.8,241,177.1,234.8,177.1z"/>
	</g>
	<g id="XMLID_1691_">
		<path class="st1" d="M253.7,255.7c-29,0-54.4-13.3-59.4-32.4c-2.1-7.8-0.6-15.8,4.4-23.1c8.4-12.6,25.8-21.7,46.4-24.3
			c33.7-4.3,65.9,9.8,71.6,31.6c2.1,7.8,0.6,15.8-4.4,23.1c-8.4,12.6-25.8,21.7-46.4,24.3C261.8,255.4,257.8,255.7,253.7,255.7z
			 M194.9,223.1c5.7,21.5,37.5,35.5,71,31.1c20.4-2.6,37.6-11.6,46-24.1c4.8-7.2,6.3-15,4.3-22.6c-5.7-21.5-37.5-35.5-71-31.1
			c-20.4,2.6-37.6,11.6-46,24.1C194.4,207.7,192.9,215.5,194.9,223.1L194.9,223.1z"/>
	</g>
	<g id="XMLID_1690_">
		<path class="st1" d="M267.7,242.8c-9.1,0-19.1-2.1-28.7-6.6c-14.8-6.8-25.7-17.5-29.4-28.8c-2-6.3-1.6-12.3,1.3-17.3
			c8.2-14.5,34.3-17.5,58-6.6c14.8,6.8,25.7,17.5,29.4,28.8c2,6.3,1.6,12.3-1.3,17.3C292.1,238.2,280.9,242.8,267.7,242.8z
			 M240.1,177.5c-13,0-23.9,4.4-28.7,12.9l0,0c-2.8,4.9-3.2,10.7-1.2,16.8c3.6,11.1,14.5,21.7,29.1,28.4
			c23.4,10.7,49.1,7.9,57.2-6.4c2.8-4.9,3.2-10.7,1.2-16.8c-3.6-11.1-14.5-21.7-29.1-28.4C259,179.6,249.1,177.5,240.1,177.5z"/>
	</g>
	<g id="XMLID_1689_">
		<path class="st0" d="M252.5,273.5c-31.8,0-60.1-12.9-69.5-33.9l0,0c-4.5-10.2-4.2-21.1,1-31.7c8.4-17.3,28.6-31.5,54-38
			c42.5-10.8,87,2.7,99.2,30.2c4.5,10.1,4.2,21.1-1,31.7c-8.4,17.3-28.6,31.5-54,38C272.3,272.3,262.2,273.5,252.5,273.5z
			 M267.7,166.8c-9.7,0-19.7,1.2-29.6,3.7c-25.3,6.4-45.3,20.5-53.6,37.6c-5.1,10.4-5.4,21.2-0.9,31.2c9.3,20.9,37.3,33.6,68.9,33.6
			c9.7,0,19.7-1.2,29.6-3.7c25.3-6.5,45.3-20.5,53.6-37.6c5.1-10.4,5.4-21.2,0.9-31.2C327.3,179.5,299.3,166.8,267.7,166.8z"/>
	</g>
	<g id="XMLID_1686_">
		<path class="st2" d="M268.2,283.7c-6.4,0-13-0.4-19.7-1.3c-53-6.8-93.9-39.5-91.3-72.7c0.9-11.3,6.8-21.8,17.1-30.1
			c19.1-15.5,50.4-22.2,83.8-17.9c53,6.8,93.9,39.5,91.3,72.8c-0.9,11.3-6.8,21.8-17.1,30.1C317,276.9,293.9,283.7,268.2,283.7z
			 M238.4,161c-25.6,0-48.6,6.7-63.7,19c-10.1,8.2-16,18.5-16.9,29.7l0,0c-2.6,33,38.1,65.3,90.8,72.1c33.2,4.3,64.4-2.4,83.3-17.8
			c10.1-8.2,16-18.5,16.9-29.7c2.6-33-38.1-65.3-90.8-72.1C251.4,161.4,244.8,161,238.4,161z"/>
	</g>
	<g id="XMLID_1685_">
		<path class="st2" d="M254.6,284.4c-55.6,0-101.9-24.7-108.2-60.4l0,0c-2.5-13.9,1.4-28.2,11.1-41.4c18.1-24.6,53.6-42.4,95.1-47.6
			c65.7-8.3,125.1,18.1,132.3,58.9c2.5,13.9-1.4,28.2-11.1,41.4c-18.1,24.6-53.6,42.4-95,47.6C270.5,283.9,262.5,284.4,254.6,284.4z
			 M276.7,134c-7.9,0-15.9,0.5-24.1,1.5c-41.3,5.2-76.6,22.9-94.6,47.4c-9.6,13.1-13.4,27.2-11,41l0,0
			c7.2,40.5,66.2,66.6,131.6,58.4c41.2-5.2,76.6-22.9,94.6-47.4c9.6-13.1,13.4-27.2,11-41C378,158.5,332,134,276.7,134z"/>
	</g>
	<g id="XMLID_1683_">
		<g id="XMLID_1684_">
			<path class="st2" d="M589.7,393.6c-11.4,0-23.8-1.2-36.7-3.9c-1.4-0.3-2.9-0.6-4.4-0.9c-22.3-4.5-59.7-12-97.4-32.6
				c-25-13.6-47.4-32.4-67-51c-15.2-2.6-29.9-5.6-43.4-9.2c-34.2-9-61.3-18.8-85.4-30.9c-13.3-6.7-44.1-27.8-49.3-47.2
				c-1.5-5.7-0.8-10.8,2.1-15.3c5.1-7.8,12-12.6,20.5-14.2c20.6-4,46.4,11.5,60,21c21.1,14.9,38.3,34.1,54.9,52.7
				c8.3,9.3,16.9,18.9,25.9,28c4.8,4.8,9.7,9.7,14.9,14.6c55.4,9.4,117.7,13.1,154.6,14.6c19,0.7,82.4,5.1,101.4,30.1
				c4.9,6.4,6.3,13.8,4.4,21.8l0,0C641.4,385.3,619.1,393.6,589.7,393.6z M385.2,305.4c19.4,18.3,41.6,36.9,66.2,50.3
				c37.7,20.5,75,28,97.3,32.5c1.5,0.3,3,0.6,4.4,0.9c45.6,9.3,86.4,1.2,91-18c1.9-7.9,0.4-15.1-4.3-21.3
				c-18.8-24.8-82-29.2-100.9-29.9C502.2,318.4,440.4,314.8,385.2,305.4z M235.6,188.4c-2.3,0-4.6,0.2-6.8,0.6
				c-8.3,1.6-15.1,6.3-20.1,14c-2.8,4.4-3.5,9.4-2.1,14.9c5.2,19.2,35.8,40.2,49,46.8c24,12.1,51.2,21.9,85.3,30.9
				c13.2,3.5,27.6,6.4,42.4,9c-4.9-4.7-9.7-9.4-14.3-14c-9.1-9.1-17.7-18.7-26-28c-16.6-18.6-33.8-37.8-54.8-52.6
				C276.3,201.5,254.6,188.4,235.6,188.4z"/>
		</g>
	</g>
	<g id="XMLID_1680_">
		<g id="XMLID_1682_">
			<path class="st3" d="M592.1,363c-5.4,0-10.9-0.2-16.5-0.7c-1.4-0.1-2.9-0.2-4.5-0.4c-22.7-1.9-60.7-5-100.6-21
				c-26.4-10.6-50.9-26.7-72.5-42.9c-15.4-0.8-30.3-2.1-44.1-4c-35-4.9-63.1-11.5-88.4-20.7c-13.9-5.1-47-22.5-54.5-41.1
				c-2.2-5.4-2.1-10.6,0.3-15.5c4.1-8.3,10.4-13.9,18.7-16.5c20-6.3,47.4,6,62,13.9c22.7,12.3,42,29.4,60.7,45.9
				c9.3,8.3,19,16.8,29,24.7c5.3,4.2,10.8,8.5,16.5,12.7c56.1,2.9,118.4-0.7,155.2-3.6c18.9-1.5,82.4-4.6,104.2,18.1
				c5.6,5.8,7.9,12.9,6.9,21.2l-0.3,0l0.3,0C662.5,350.8,631.3,363,592.1,363z M399.1,298.1c21.4,16,45.6,31.8,71.7,42.2
				c39.8,16,77.7,19.1,100.4,20.9c1.6,0.1,3.1,0.3,4.5,0.4c46.4,3.9,86-8.9,88.3-28.5l0,0c1-8.1-1.3-15-6.8-20.7
				c-21.6-22.5-84.8-19.4-103.7-17.9C516.8,297.4,455,301,399.1,298.1z M242.2,199c-4.2,0-8.3,0.5-12.1,1.7
				c-8.1,2.6-14.2,8-18.3,16.2c-2.3,4.7-2.4,9.7-0.3,15c7.4,18.5,40.3,35.7,54.1,40.8c25.3,9.2,53.3,15.8,88.3,20.7
				c13.5,1.9,28.1,3.2,43.2,4c-5.5-4.1-10.7-8.2-15.8-12.2c-10.1-7.9-19.7-16.5-29.1-24.8c-18.7-16.5-37.9-33.6-60.6-45.9
				C280,208.3,259.9,199,242.2,199z"/>
		</g>
		<g id="XMLID_1681_">
			<path class="st3" d="M242.9,250.4c-9.4,0-18.2-2.1-24.4-7.8c-7.5-6.8-10.7-13.6-9.4-20.3c2.6-14.1,24.4-24.6,37.2-29.6
				c20.9-8.2,45.4-12.2,69.1-16.1c11.8-1.9,24.1-3.9,35.9-6.5c6.2-1.3,12.6-2.7,19-4.3c24-32.4,43.8-71.5,54.7-94.9
				c4.7-10.2,22.3-44,48.7-52.8c10.8-3.6,21.8-2.5,32.7,3.3l0,0c6.7,3.6,11.1,9.7,12.7,17.8c2.8,14.2-3.5,32.5-16.9,48.8
				c-0.7,0.8-1.3,1.7-2.1,2.5c-10.4,12.8-27.8,34.3-59,51.2c-20.6,11.2-46,18.7-70.5,24.5c-6.6,8.9-13.5,17.3-20.6,24.7
				c-18.1,18.9-35.3,32.9-54.2,44C286.4,240.8,263,250.4,242.9,250.4z M369.7,166.8c-6.2,1.5-12.4,2.8-18.3,4.1
				c-11.8,2.5-24.1,4.5-35.9,6.5c-23.7,3.9-48.1,7.9-69,16c-12.7,4.9-34.3,15.3-36.8,29.1c-1.2,6.5,1.9,13.1,9.2,19.8
				c19.3,17.4,62.9,0.6,76.6-7.5c18.8-11.1,36-25.1,54-43.9C356.5,183.6,363.3,175.4,369.7,166.8z M486.1,16.8
				c-4.1,0-8.2,0.7-12.2,2c-26.2,8.7-43.6,42.4-48.3,52.5c-10.9,23.3-30.5,62.1-54.4,94.4c24.2-5.8,49.3-13.3,69.6-24.3
				c31.1-16.8,48.4-38.3,58.8-51.1c0.7-0.9,1.4-1.7,2.1-2.5c13.3-16.2,19.5-34.3,16.7-48.4c-1.6-7.8-5.8-13.8-12.4-17.4l0,0
				C499.4,18.6,492.7,16.8,486.1,16.8z"/>
		</g>
	</g>
	<g id="XMLID_1678_">
		<g id="XMLID_1679_">
			<path class="st2" d="M242.7,236.8c-9.4,0-18.2-2.1-24.4-7.8c-7.5-6.8-10.7-13.6-9.4-20.3c2.6-14.1,24.4-24.6,37.2-29.6
				c20.9-8.2,45.4-12.2,69.1-16.1c11.8-1.9,24.1-3.9,35.9-6.5c6.2-1.3,12.6-2.7,19-4.3c24-32.4,43.8-71.5,54.7-94.9
				c4.7-10.2,22.3-44,48.7-52.8c10.8-3.6,21.8-2.5,32.7,3.3l0,0c6.7,3.6,11.1,9.7,12.7,17.8c2.8,14.2-3.5,32.5-16.9,48.8
				c-0.7,0.8-1.4,1.7-2.1,2.6c-10.4,12.8-27.8,34.3-59,51.2c-20.6,11.2-46,18.7-70.5,24.5c-6.6,8.9-13.5,17.3-20.6,24.7
				c-18.1,18.9-35.3,32.9-54.2,44C286.2,227.2,262.8,236.8,242.7,236.8z M369.5,153.2c-6.2,1.5-12.4,2.8-18.3,4.1
				c-11.8,2.5-24.1,4.5-35.9,6.5c-23.7,3.9-48.1,7.9-69,16c-12.7,4.9-34.3,15.3-36.8,29.1c-1.2,6.5,1.9,13.1,9.2,19.8
				c19.3,17.4,62.9,0.6,76.6-7.5c18.8-11.1,36-25,54-43.9C356.3,170,363.1,161.8,369.5,153.2z M485.9,3.2c-4.1,0-8.2,0.7-12.2,2
				c-26.2,8.7-43.6,42.4-48.3,52.5c-10.9,23.3-30.5,62.1-54.4,94.4c24.2-5.8,49.3-13.3,69.6-24.3c31-16.8,48.4-38.2,58.8-51
				c0.7-0.9,1.4-1.7,2.1-2.6C514.8,58,521,40,518.2,25.9c-1.6-7.8-5.8-13.8-12.4-17.4l0,0C499.2,5,492.5,3.2,485.9,3.2z"/>
		</g>
	</g>
	<g id="XMLID_1675_">
		<g id="XMLID_1677_">
			<path class="st4" d="M592.8,397.7c-11.1,0-23.2-1.2-35.7-3.6c-1.4-0.3-2.9-0.6-4.5-0.9c-22.3-4.4-59.7-11.6-97.6-31.9
				c-25.1-13.4-47.6-32.1-67.3-50.6c-15.2-2.5-29.9-5.4-43.4-8.9c-34.3-8.7-61.5-18.4-85.6-30.4c-13.3-6.6-44.3-27.6-49.6-46.9
				c-1.6-5.6-0.9-10.8,2-15.4c5-7.8,11.9-12.7,20.4-14.4c20.6-4.1,46.5,11.2,60.1,20.7c21.2,14.7,38.5,33.9,55.3,52.4
				c8.4,9.2,17,18.8,26.1,27.8c4.8,4.7,9.8,9.6,15,14.5c55.4,9.1,117.7,12.4,154.7,13.6c19,0.6,82.4,4.6,101.6,29.5
				c4.9,6.4,6.4,13.7,4.5,21.8l0,0C645.4,389.3,622.6,397.7,592.8,397.7z M388.8,310.9c19.5,18.2,41.8,36.6,66.6,49.9
				c37.8,20.3,75.1,27.5,97.5,31.9c1.6,0.3,3,0.6,4.5,0.9c45.6,9,86.4,0.7,90.9-18.6l0,0c1.8-7.9,0.3-15.1-4.4-21.3
				c-19-24.7-82.2-28.6-101.1-29.2C505.9,323.2,444,319.9,388.8,310.9z M238.7,194.8c-2.4,0-4.8,0.2-7.1,0.7
				c-8.3,1.7-15,6.4-20,14.1c-2.8,4.4-3.5,9.4-2,14.9c5.3,19.2,36.1,40,49.3,46.5c24.1,12,51.3,21.6,85.5,30.3
				c13.2,3.4,27.6,6.3,42.5,8.7c-5-4.7-9.8-9.3-14.4-13.9c-9.1-9-17.8-18.6-26.1-27.8c-16.7-18.5-34-37.6-55.2-52.3
				C279.2,207.7,257.6,194.8,238.7,194.8z"/>
		</g>
		<g id="XMLID_1676_">
			<path class="st4" d="M246.9,246.9c-12.6,0-24.5-2.8-31.7-10.9c-6.7-7.6-9.2-14.8-7.2-21.4c4-13.2,24.1-21.1,40.4-25.4
				c21.7-5.8,46.5-7.1,70.5-8.3c12-0.6,24.4-1.3,36.4-2.5c6.3-0.6,12.7-1.3,19.3-2.1c27.4-29.6,51.3-66.2,64.8-88.2
				c5.8-9.6,27-41.4,54.3-47.2c11.2-2.4,22-0.1,32.2,7l0,0c6.3,4.4,10,11,10.7,19.2c1.2,14.5-7.1,32-22.2,46.9
				c-0.8,0.7-1.5,1.5-2.3,2.3c-11.8,11.6-31.5,31-64.3,44.4c-21.7,8.8-47.8,13.5-72.7,16.6c-7.5,8.1-15.3,15.7-23.2,22.3
				c-20.1,16.8-38.8,28.8-58.7,37.8C284.5,241.1,265,246.9,246.9,246.9z M373.5,177.4c-6.2,0.7-12.2,1.4-18.1,2
				c-12,1.2-24.4,1.8-36.4,2.5c-23.9,1.2-48.7,2.5-70.3,8.3c-13.1,3.5-35.7,11.4-39.7,24.8c-1.9,6.2,0.5,13.1,7,20.5
				c17.2,19.4,62.3,7.5,76.8,1c19.9-9,38.5-20.9,58.5-37.6C358.8,192.3,366.3,185.1,373.5,177.4z M502.1,40.9
				c-2.7,0-5.5,0.3-8.2,0.9C467,47.5,446,79,440.2,88.5c-13.3,21.9-37,58-64.1,87.5c24.5-3.1,50-7.8,71.3-16.4
				c32.7-13.3,52.3-32.6,64-44.2c0.8-0.8,1.6-1.6,2.4-2.3c14.9-14.6,23.1-31.8,21.9-46.1c-0.7-7.9-4.2-14.3-10.3-18.5v0
				C517.9,43.5,510.2,40.9,502.1,40.9z"/>
		</g>
	</g>
	<g id="XMLID_1670_">
		<path class="st0" d="M590.4,379.3c-9.4,0-19.4-0.8-29.7-2.4c-1.4-0.2-2.9-0.5-4.5-0.7c-22.5-3.5-60.1-9.4-98.8-28.3
			c-25.5-12.5-48.8-30.4-69.2-48.1c-15.3-1.9-30.1-4.3-43.7-7.3c-34.6-7.5-62.1-16.1-86.7-27.2c-13.5-6.1-45.2-25.9-51.3-45
			c-1.8-5.6-1.3-10.8,1.5-15.4c4.7-8,11.4-13.1,19.8-15.1c20.4-4.8,46.9,9.5,60.8,18.4c21.7,13.9,39.7,32.4,57.2,50.3
			c8.7,8.9,17.7,18.1,27.1,26.8c5,4.6,10.1,9.2,15.5,13.9c55.7,7,118.1,8,155.1,7.8c19-0.1,82.5,1.5,102.6,25.7
			c5.1,6.2,6.9,13.5,5.4,21.6l0,0C648.6,369.8,623.3,379.3,590.4,379.3z M389.4,300c20.2,17.5,43.2,35.1,68.4,47.4
			c38.5,18.8,76.1,24.7,98.6,28.2c1.6,0.2,3,0.5,4.5,0.7c45.9,7.3,86.4-2.6,90.2-22l0,0c1.5-8-0.2-15.1-5.2-21.1
			c-19.9-24-83.2-25.5-102.1-25.5C506.9,307.9,445,307,389.4,300z M236.8,189.6c-3,0-5.9,0.3-8.7,1c-8.3,2-14.8,6.9-19.4,14.8
			c-2.7,4.5-3.1,9.5-1.4,14.9c6,18.9,37.5,38.6,51,44.7c24.5,11,52,19.7,86.6,27.1c13.3,2.9,27.8,5.2,42.8,7.1
			c-5.1-4.5-10.1-9-14.9-13.3c-9.4-8.7-18.5-17.9-27.2-26.8c-17.4-17.8-35.4-36.3-57.1-50.2C276.5,201.2,255.3,189.6,236.8,189.6z"
			/>
	</g>
	<g id="XMLID_1669_">
		<path class="st0" d="M242.3,241.2c-11.4,0-22.1-2.5-28.9-9.7c-7-7.3-9.6-14.4-7.9-20.9c3.6-13.9,26.2-22.7,39.3-26.8
			c21.5-6.6,46.2-8.8,70.1-11c12-1.1,24.3-2.2,36.2-3.8c6.3-0.9,12.7-1.8,19.3-2.9c26.3-30.6,48.9-68.1,61.5-90.7
			c5.5-9.8,25.4-42.3,52.4-49.1c11.1-2.8,21.9-0.9,32.3,5.7c6.4,4.1,10.4,10.5,11.4,18.7c1.8,14.4-5.8,32.1-20.4,47.5
			c-0.7,0.8-1.5,1.5-2.2,2.4c-11.3,12-30.3,32.2-62.6,46.8c-21.4,9.6-47.3,15.3-72.1,19.3c-7.2,8.4-14.7,16.3-22.4,23.2
			c-19.4,17.5-37.6,30.2-57.2,39.9C282.1,234.2,261.2,241.2,242.3,241.2z M369.8,166.9c-6.3,1-12.5,1.9-18.6,2.7
			c-11.9,1.6-24.3,2.7-36.3,3.8c-23.9,2.1-48.6,4.3-70,10.9c-13,4-35.3,12.7-38.9,26.4c-1.7,6.4,1,13.2,7.8,20.4
			c18,18.8,62.7,5.2,77-1.8c19.6-9.7,37.7-22.4,57.1-39.8C355.4,182.7,362.7,175,369.8,166.9z M494.1,25.8c-3.2,0-6.4,0.4-9.6,1.2
			c-26.7,6.8-46.6,39.1-52,48.8c-12.6,22.5-35,59.7-61.1,90.2c24.5-4,50.1-9.6,71.2-19.2c32.2-14.5,51.1-34.6,62.4-46.6
			c0.8-0.8,1.5-1.6,2.2-2.4c14.4-15.2,22-32.8,20.2-47c-1-7.9-4.8-14.2-11.1-18.2C509.1,28.1,501.7,25.8,494.1,25.8z"/>
	</g>
	<g id="XMLID_1667_">
		<g id="XMLID_1668_">
			<path class="st3" d="M573.3,405.3c-12.9,0-27.4-1.7-42.4-5.4c-1.4-0.3-2.9-0.7-4.4-1.1c-22.1-5.4-59.2-14.3-96.1-36.3
				c-24.4-14.6-46.1-34.3-65-53.6c-15.1-3.2-29.6-6.8-43-10.8c-33.8-10.3-60.6-21.2-84.1-34.2c-13-7.2-43-29.5-47.4-49.1
				c-1.3-5.7-0.4-10.8,2.7-15.3c5.4-7.6,12.4-12.1,21-13.4c20.7-3.1,45.9,13.3,59.1,23.4c20.5,15.7,36.9,35.6,52.8,54.8
				c7.9,9.6,16.2,19.6,24.8,29c4.6,5,9.4,10,14.3,15.1c55,11.6,117.1,17.7,153.9,20.6c18.9,1.5,82.1,8.3,100.1,34.1
				c4.6,6.6,5.8,14,3.6,22l-0.3-0.1l0.3,0.1C619.7,398,599.8,405.3,573.3,405.3z M366.5,309.1c18.7,19.1,40.1,38.5,64.2,52.9
				c36.9,22,73.8,30.9,95.9,36.3c1.5,0.4,3,0.7,4.4,1.1c45.2,11.1,86.3,4.6,91.7-14.5c2.2-7.8,1-15-3.5-21.5
				c-17.8-25.5-80.8-32.3-99.7-33.8C483,326.7,421.3,320.6,366.5,309.1z M220.1,186.3c-1.8,0-3.6,0.1-5.3,0.4
				c-8.4,1.3-15.3,5.7-20.6,13.2c-3,4.3-3.9,9.2-2.6,14.8c4.4,19.4,34.2,41.6,47.1,48.7c23.5,13,50.2,23.9,84,34.2
				c13.1,4,27.3,7.5,42,10.6c-4.8-4.9-9.3-9.8-13.7-14.5c-8.7-9.4-16.9-19.4-24.9-29c-15.9-19.2-32.3-39.1-52.7-54.7
				C261.4,200.7,239.4,186.3,220.1,186.3z"/>
		</g>
	</g>
	<g id="XMLID_1664_">
		<g id="XMLID_1666_">
			<path class="st4" d="M563.1,439.5c-16.1,0-35.6-3.6-55.4-10.8c-1.3-0.5-2.8-1-4.2-1.5c-21.4-7.8-57.2-20.8-91.5-46.7
				c-22.7-17.2-42.1-39.1-58.7-60.4c-14.6-4.8-28.7-10-41.5-15.5c-32.5-14-57.9-27.7-79.9-43.3c-12.1-8.6-39.5-34.2-41.8-54.2
				c-0.7-5.9,0.8-10.9,4.5-15c6.2-7,13.8-10.7,22.5-11.1c21-0.8,44.3,18.3,56.3,29.8c18.7,17.9,32.8,39.5,46.5,60.3
				c6.8,10.4,13.9,21.2,21.5,31.5c4,5.4,8.2,11,12.5,16.6c53.3,17.6,114.3,30.5,150.6,37.4c18.7,3.6,80.8,17.3,95.9,45
				c3.9,7.1,4.3,14.7,1.1,22.4h0C597.2,434.2,582.7,439.5,563.1,439.5z M354.9,320.5c16.3,20.9,35.4,42.3,57.6,59.1
				c34.2,25.9,69.9,38.8,91.3,46.6c1.5,0.5,2.9,1,4.2,1.5c43.6,16,85.1,14.1,92.5-4.2l0,0c3-7.5,2.7-14.7-1.1-21.6
				c-14.9-27.3-76.6-40.9-95.2-44.5C468.2,350.6,408,337.9,354.9,320.5z M218.4,181.9c-0.4,0-0.9,0-1.3,0c-8.4,0.3-15.7,4-21.8,10.7
				c-3.4,3.9-4.8,8.6-4.2,14.2c2.3,19.7,29.4,45,41.4,53.5c21.9,15.5,47.3,29.3,79.7,43.2c12.4,5.3,25.9,10.3,40,15
				c-4-5.2-7.9-10.4-11.6-15.4c-7.6-10.3-14.7-21.1-21.5-31.5c-13.6-20.8-27.8-42.4-46.3-60.2C261,200.3,238.7,181.9,218.4,181.9z"
				/>
		</g>
		<g id="XMLID_1665_">
			<path class="st4" d="M240.7,235.9c-17.9,0-37.6-3.7-46-16.8c-5.4-8.5-6.7-15.9-3.8-22.1c6.2-12.9,30-17.3,43.7-18.8
				c22.4-2.4,47.1,0.2,70.9,2.7c11.9,1.2,24.3,2.5,36.3,3.2c6.3,0.4,12.8,0.7,19.5,0.9c31.7-25,61.1-57.4,77.8-77.2
				c7.3-8.6,33.1-36.6,60.9-38.1c11.4-0.6,21.7,3.4,30.6,11.8l0,0c5.5,5.2,8.1,12.3,7.6,20.5c-1,14.5-11.9,30.4-29.1,42.7
				c-0.9,0.6-1.8,1.3-2.7,1.9c-13.4,9.6-35.9,25.8-70.4,33.8c-22.8,5.3-49.3,6-74.4,5.1c-8.7,6.8-17.6,13.1-26.4,18.4
				c-22.4,13.5-42.7,22.4-63.8,28.2C264.9,234,253.2,235.9,240.7,235.9z M253.8,177.9c-6.5,0-12.9,0.3-19.1,0.9
				c-13.5,1.4-37.1,5.7-43.2,18.4c-2.9,5.9-1.6,13.2,3.7,21.5c14,21.9,60.5,17.2,75.9,13c21.1-5.8,41.3-14.7,63.7-28.1
				c8.6-5.2,17.3-11.3,25.8-17.9c-6.4-0.2-12.7-0.5-18.8-0.9c-12-0.7-24.4-2-36.3-3.2C288.3,179.7,270.7,177.9,253.8,177.9z
				 M362.3,185.1c24.8,0.8,51,0.2,73.6-5.1c34.4-8.1,56.8-24.1,70.2-33.8c0.9-0.7,1.8-1.3,2.7-1.9c17.1-12.2,27.9-28,28.9-42.2
				c0.6-8-2-14.9-7.4-20l0,0c-8.8-8.4-19-12.3-30.2-11.7c-27.5,1.5-53.2,29.4-60.4,37.9C423,127.9,393.8,160.2,362.3,185.1z"/>
		</g>
	</g>
	<g id="XMLID_1661_">
		<g id="XMLID_1663_">
			<path class="st2" d="M559,451c-17.1,0-38.7-4.8-60.5-14.3c-1.3-0.6-2.7-1.2-4.1-1.8c-20.9-9-55.9-24.1-88.6-52
				c-21.6-18.5-39.7-41.5-55-63.8c-14.3-5.7-28.1-11.7-40.5-17.9c-31.6-15.8-56.1-31.1-77.2-47.9c-11.6-9.3-37.4-36.4-38.5-56.4
				c-0.3-5.8,1.5-10.7,5.3-14.6c6.6-6.6,14.3-9.8,23-9.7c21,0.4,43,20.8,54.3,33c17.6,18.9,30.4,41.3,42.8,62.9
				c6.2,10.8,12.6,22,19.6,32.7c3.7,5.7,7.5,11.5,11.6,17.3c52.2,20.7,112.4,37.2,148.2,46.2c18.4,4.6,79.6,22,92.9,50.4
				c3.4,7.3,3.4,14.8-0.2,22.3l0,0C587.8,446.6,575.5,451,559,451z M351.7,319.6c15.2,22,33.1,44.7,54.4,62.9
				c32.6,27.9,67.6,42.9,88.4,51.9c1.4,0.6,2.8,1.2,4.1,1.8c42.7,18.5,84.3,19.1,92.8,1.2l0.3,0.1l-0.3-0.1
				c3.5-7.3,3.5-14.6,0.2-21.8c-13.3-28.2-74.2-45.5-92.5-50.1C463.5,356.5,403.7,340.1,351.7,319.6z M222.1,173.3
				c-8.2,0-15.6,3.2-21.9,9.5c-3.7,3.7-5.4,8.4-5.1,14.1c1.1,19.8,26.7,46.7,38.2,56c21,16.8,45.5,32,77.1,47.8
				c12.2,6.1,25.6,12,39.6,17.6c-3.9-5.6-7.6-11.2-11.1-16.6c-7-10.7-13.4-21.9-19.6-32.8c-12.4-21.6-25.2-43.9-42.8-62.8
				c-11.2-12.1-33.2-32.4-53.9-32.8C222.5,173.3,222.3,173.3,222.1,173.3z"/>
		</g>
		<g id="XMLID_1662_">
			<path class="st2" d="M251.2,229c-19.7,0-44.2-4.1-52.9-19.7c-4.9-8.8-5.8-16.3-2.4-22.3c6.6-11.9,28-15.4,44.7-16.2
				c22.5-1,47,3,70.6,6.9c11.8,1.9,24.1,4,36,5.3c6.3,0.7,12.8,1.4,19.4,2c33.1-23.1,64.3-53.8,82.2-72.5c7.7-8.1,35-34.5,62.8-34.5
				c0.1,0,0.1,0,0.2,0c11.4,0,21.5,4.6,29.9,13.6c5.2,5.6,7.4,12.8,6.3,20.9c-1.9,14.4-13.7,29.7-31.6,40.9
				c-0.9,0.6-1.8,1.1-2.8,1.8c-14,8.8-37.3,23.6-72.2,29.7c-23.1,4-49.6,3-74.6,0.7c-9.1,6.3-18.3,12.1-27.5,16.8
				c-23.2,12.1-44,19.9-65.4,24.4C268.9,228.1,260.6,229,251.2,229z M248,171.4c-2.5,0-5,0.1-7.4,0.2c-13.6,0.6-37.4,3.5-44.2,15.8
				c-3.2,5.8-2.4,13.1,2.4,21.7c12.7,22.7,59.4,20.7,75,17.4c21.4-4.5,42.1-12.3,65.2-24.3c8.9-4.7,17.9-10.2,26.8-16.4
				c-6.4-0.6-12.6-1.3-18.7-2c-12-1.4-24.2-3.4-36.1-5.4C290,174.9,268.3,171.4,248,171.4z M367.5,185.3c24.7,2.3,50.9,3.2,73.7-0.8
				c34.8-6,58.1-20.8,72-29.6c1-0.6,1.9-1.2,2.8-1.8c17.8-11.1,29.5-26.3,31.3-40.5c1-7.9-1.1-15-6.2-20.4
				c-8.3-8.9-18.2-13.4-29.4-13.4c-0.1,0-0.1,0-0.2,0c-27.5,0-54.7,26.2-62.4,34.3C431.5,131.8,400.5,162.2,367.5,185.3z"/>
		</g>
	</g>
	<g id="XMLID_1659_">
		<g id="XMLID_1660_">
			<path class="st0" d="M251.1,228.4c-20.4,0-47.9-4.3-56.8-21.4c-4.7-9-5.2-16.5-1.8-22.3c7.4-12.3,31.5-14.5,45.2-14.7
				c22.5-0.3,46.9,4.4,70.4,9.1c11.8,2.3,23.9,4.7,35.8,6.5c6.3,0.9,12.7,1.8,19.3,2.6c33.8-22,66-51.7,84.4-69.9
				c7.8-7.7,35.2-32.5,62.5-32.5c0.5,0,1,0,1.6,0c11.4,0.4,21.3,5.3,29.4,14.5l0,0c5.3,6,6.6,17.7,4.9,25
				c-3.7,15.3-17.9,29.6-43.3,43.7c-19.2,10.7-41.6,18.1-64.6,21.3c-23.2,3.3-49.7,1.5-74.6-1.6c-9.3,6-18.7,11.5-28,16
				c-23.6,11.4-44.6,18.5-66.1,22.3C265.1,227.8,258.6,228.4,251.1,228.4z M240.1,170.5c-0.8,0-1.6,0-2.3,0
				c-13.6,0.2-37.5,2.4-44.7,14.5c-3.4,5.7-2.8,13,1.8,21.7c12,23.1,58.7,22.5,74.4,19.7c21.5-3.9,42.5-10.9,66-22.3
				c9.1-4.4,18.2-9.7,27.3-15.5c-6.3-0.8-12.6-1.7-18.6-2.6c-11.9-1.8-24.1-4.2-35.9-6.5C285.3,175.1,261.9,170.5,240.1,170.5z
				 M364.3,188.2c24.7,3,50.8,4.7,73.7,1.5c23-3.3,45.3-10.6,64.4-21.3c25.3-14.1,39.4-28.2,43.1-43.3c1.7-7.2,0.4-18.6-4.7-24.5
				l0,0c-8-9.1-17.8-13.9-29-14.3c-27.6-1-55.6,24.5-63.6,32.3C429.8,136.7,397.9,166.2,364.3,188.2z"/>
		</g>
	</g>
	<g id="XMLID_1657_">
		<g id="XMLID_1658_">
			<path class="st0" d="M535,479.3c-17.5,0-40.1-5.5-62.8-16.2c-21.4-10.1-46.8-28.8-79.8-58.8c-21.1-19.2-37.2-46.4-52.7-72.7
				c-3.2-5.5-6.3-10.6-9.4-15.7c-5.7-3.3-11.3-6.5-16.9-9.5c-31.1-16.8-55.2-32.8-75.6-50.3c-11.3-9.6-36.2-37.5-36.7-57.6
				c-0.1-5.9,1.8-10.7,5.7-14.4c6.8-6.4,14.6-9.4,23.2-9c20.9,1,42.4,22.2,53.3,34.7c14.4,16.5,21.4,38.1,28.3,59
				c5.2,15.9,10.6,32.4,19.2,46.7c11,6.4,22,13.2,32.8,19.9c35.8,22.1,72.8,44.9,111.8,56.1c18.3,5.2,78.8,24.5,91.3,53.3
				c3.2,7.4,2.9,14.9-0.9,22.3l0,0C561.4,475.2,550.1,479.3,535,479.3z M331.3,316.4c2.9,4.8,5.8,9.7,8.8,14.8
				c15.5,26.3,31.5,53.4,52.6,72.6c33,30,58.3,48.6,79.7,58.7c42.1,19.9,83.7,21.7,92.7,4.1c3.7-7.2,4-14.5,0.9-21.7
				c-12.4-28.6-72.7-47.8-90.9-53c-39.1-11.2-76.1-34-111.9-56.2C352.7,329.3,342,322.7,331.3,316.4z M228.3,175.6
				c-7.9,0-15,3-21.2,8.8c-3.8,3.6-5.7,8.3-5.5,13.9c0.5,19.9,25.3,47.5,36.5,57.1c20.5,17.4,44.5,33.4,75.5,50.2
				c5.3,2.9,10.7,5.9,16,9c-8.3-14.1-13.6-30.2-18.7-45.9c-6.8-20.8-13.8-42.3-28.1-58.8c-10.8-12.4-32.1-33.4-52.8-34.5
				C229.4,175.6,228.8,175.6,228.3,175.6z"/>
		</g>
	</g>
</g>
</svg>
