<?xml version="1.0" encoding="utf-8"?>
<!-- Generator: Adobe Illustrator 21.1.0, SVG Export Plug-In . SVG Version: 6.00 Build 0)  -->
<svg version="1.1" id="Layer_1" xmlns="http://www.w3.org/2000/svg" xmlns:xlink="http://www.w3.org/1999/xlink" x="0px" y="0px"
	 width="794px" height="400px" viewBox="0 0 794 400" style="enable-background:new 0 0 794 400;" xml:space="preserve">
<style type="text/css">
	.st0{fill:#004E9D;}
	.st1{fill:#E12926;}
	.st2{fill:#548D34;}
	.st3{fill:#B8D43B;}
	.st4{fill:#3FBCBC;}
	.st5{fill:#76BD42;}
	.st6{fill:#A8CF43;}
	.st7{fill:#3773B6;}
	.st8{fill:#EC1C24;}
	.st9{fill:#1B95B0;}
</style>
<g id="XMLID_1693_">
	<g id="XMLID_1717_">
		<path class="st0" d="M371.3,237.1c-6.8,0-13.2-2.2-18.1-6.2c-4.6-3.8-7.3-9-7.8-14.5c-1.1-12.8,10-24.3,24.8-25.7
			c7.8-0.7,15.5,1.5,21,6.1c4.6,3.8,7.3,9,7.8,14.5l0,0c1.1,12.8-10,24.3-24.8,25.7C373.3,237,372.3,237.1,371.3,237.1z
			 M373.2,191.3c-1,0-1.9,0-2.9,0.1c-14.3,1.4-25.1,12.5-24.1,24.8c0.5,5.3,3.1,10.3,7.5,13.9c5.4,4.5,12.8,6.6,20.4,5.9
			c14.3-1.4,25.1-12.5,24.1-24.8c-0.5-5.3-3.1-10.3-7.5-13.9C386.1,193.4,379.8,191.3,373.2,191.3z"/>
	</g>
	<g id="XMLID_1716_">
		<path class="st1" d="M378.7,239.7c-15.7,0-29.1-7.1-33.7-19.3c-6.6-17.3,6.9-38.6,30.1-47.4c23.2-8.8,47.3-1.8,53.9,15.5l0,0
			c6.6,17.3-6.9,38.6-30.1,47.4C392.1,238.5,385.2,239.7,378.7,239.7z M395.3,170.1c-6.4,0-13.2,1.2-19.9,3.7
			c-22.7,8.6-36,29.4-29.6,46.3c6.4,16.9,30.1,23.7,52.8,15c22.7-8.6,36-29.4,29.6-46.3l0,0C423.7,177,410.6,170.1,395.3,170.1z"/>
	</g>
	<g id="XMLID_1715_">
		<path class="st2" d="M396.8,245.5c-15,0-29.2-4.4-39.8-12.3c-10.7-8-16.6-18.6-16.6-29.9c0-11.3,5.9-21.9,16.5-29.9
			c10.6-8,24.8-12.4,39.9-12.4c0,0,0.1,0,0.1,0c15,0,29.2,4.4,39.8,12.3c10.7,8,16.6,18.6,16.6,29.9l0,0
			C453.3,226.5,428,245.4,396.8,245.5C396.8,245.5,396.8,245.5,396.8,245.5z M396.9,161.8C396.8,161.8,396.8,161.8,396.9,161.8
			c-15,0-28.9,4.4-39.4,12.2c-10.5,7.8-16.2,18.2-16.2,29.3c0,11,5.8,21.4,16.3,29.2c10.5,7.8,24.5,12.1,39.3,12.1c0,0,0.1,0,0.1,0
			c30.7,0,55.6-18.6,55.6-41.5l0,0c0-11-5.8-21.4-16.3-29.2C425.6,166.1,411.7,161.8,396.9,161.8z"/>
	</g>
	<g id="XMLID_1714_">
		<path class="st3" d="M378.4,246.7c-7.6,0-15-3-21.1-8.5c-7-6.3-11.4-15.3-12.5-25.2c-1.1-9.9,1.2-19.7,6.6-27.4
			c5.4-7.7,13.2-12.5,21.9-13.5c8.7-1,17.4,2,24.4,8.3c7,6.3,11.4,15.3,12.5,25.2l0,0c1.1,9.9-1.2,19.7-6.6,27.4
			c-5.4,7.7-13.2,12.5-21.9,13.5C380.6,246.6,379.5,246.7,378.4,246.7z M376.6,172.7c-1.1,0-2.1,0.1-3.2,0.2
			c-8.5,1-16.1,5.6-21.3,13.2c-5.3,7.6-7.6,17.1-6.5,26.8c1.1,9.7,5.4,18.5,12.2,24.7c6.8,6.2,15.2,9.1,23.7,8.1
			c8.5-1,16.1-5.6,21.3-13.2c5.3-7.6,7.6-17.1,6.5-26.8l0,0c-1.1-9.7-5.4-18.5-12.2-24.7C391.2,175.6,384,172.7,376.6,172.7z"/>
	</g>
	<g id="XMLID_1713_">
		<path class="st0" d="M375.4,243.4c-4.5,0-8.9-0.9-13.2-2.6c-8.4-3.5-14.8-10-18.1-18.3c-6.9-17.2,1.7-36.9,19.1-43.9
			c17.5-7,37.3,1.3,44.2,18.5l0,0c3.4,8.3,3.2,17.5-0.4,25.8c-3.6,8.3-10.3,14.7-18.7,18.1C384.1,242.6,379.8,243.4,375.4,243.4z
			 M376.1,176.8c-4.2,0-8.4,0.8-12.5,2.4c-17,6.8-25.4,26.1-18.7,42.8c3.3,8.1,9.5,14.5,17.7,17.9c8.1,3.4,17.2,3.4,25.4,0.1
			c8.3-3.3,14.7-9.6,18.3-17.7c3.5-8.1,3.7-17,0.4-25.1C401.5,184.6,389.2,176.8,376.1,176.8z"/>
	</g>
	<g id="XMLID_1712_">
		<path class="st4" d="M379.5,245.6c-9.6,0-18.8-3.1-25.7-8.9c-6.5-5.4-10.4-12.7-11.1-20.6c-1.6-18.1,14.3-34.5,35.3-36.5
			c11.1-1.1,22,2.1,29.9,8.7c6.5,5.4,10.4,12.7,11.1,20.6l0,0c1.6,18.1-14.3,34.5-35.3,36.5C382.3,245.5,380.9,245.6,379.5,245.6z
			 M382.2,180.2c-1.4,0-2.7,0.1-4.1,0.2c-20.6,2-36,17.9-34.5,35.6c0.7,7.7,4.5,14.8,10.8,20c7.7,6.4,18.4,9.5,29.2,8.5
			c20.6-2,36-17.9,34.5-35.6l0,0c-0.7-7.7-4.5-14.8-10.8-20C400.6,183.3,391.6,180.2,382.2,180.2z"/>
	</g>
	<g id="XMLID_1711_">
		<path class="st4" d="M372.1,228.1c-5.7,0-11.1-1.9-15.1-5.2c-3.8-3.2-6.1-7.5-6.5-12.2c-0.9-10.7,8.4-20.4,20.8-21.6
			c6.5-0.6,13,1.2,17.6,5.1c3.8,3.2,6.2,7.5,6.6,12.2l0,0c0.9,10.7-8.4,20.4-20.8,21.6C373.8,228,373,228.1,372.1,228.1z
			 M373.7,189.8c-0.8,0-1.6,0-2.4,0.1c-11.9,1.1-20.9,10.4-20,20.6c0.4,4.4,2.6,8.6,6.2,11.6c4.5,3.7,10.7,5.5,17,4.9
			c11.9-1.1,20.9-10.4,20-20.7l0,0c-0.4-4.4-2.6-8.6-6.3-11.6C384.4,191.6,379.2,189.8,373.7,189.8z"/>
	</g>
	<g id="XMLID_1710_">
		<path class="st5" d="M379.2,240.6c-5.8,0-11.9-1.7-17.4-5.2c-7.1-4.6-12.1-11.6-13.7-19.2c-1.3-6.3-0.2-12.5,3-17.5
			c7.6-11.5,24.7-13.9,38.1-5.2c7.1,4.6,12.1,11.6,13.7,19.2c1.3,6.3,0.2,12.5-3.1,17.5l0,0C395.5,236.9,387.7,240.6,379.2,240.6z
			 M372,189.1c-8.2,0-15.7,3.5-20.1,10.1c-3.2,4.8-4.2,10.8-2.9,16.8c1.6,7.4,6.4,14.2,13.3,18.6c13.1,8.4,29.6,6.2,37-5
			c3.2-4.8,4.2-10.8,2.9-16.8c-1.6-7.4-6.4-14.2-13.3-18.6C383.5,190.7,377.6,189.1,372,189.1z"/>
	</g>
	<g id="XMLID_1709_">
		<path class="st0" d="M376.9,299.4c-5.2,0-10.3-0.6-15.4-1.7c-17.3-4-31.5-14.7-39.8-30.1c-9.6-17.8-10.5-40.3-2.6-61.8
			c15.4-41.6,59.5-68.3,98.2-59.3c17.4,4,31.5,14.7,39.8,30.1c9.6,17.8,10.5,40.3,2.6,61.8C446.4,274.6,411.3,299.4,376.9,299.4z
			 M402,145.6c-34,0-68.8,24.6-82,60.5c-7.9,21.2-6.9,43.5,2.5,61.1c8.2,15.2,22.1,25.7,39.2,29.7c5,1.2,10.1,1.7,15.2,1.7
			c34,0,68.8-24.6,82-60.5c7.9-21.2,6.9-43.5-2.5-61.1c-8.2-15.2-22.1-25.7-39.3-29.7C412.2,146.1,407.1,145.6,402,145.6z"/>
	</g>
	<g id="XMLID_1708_">
		<path class="st0" d="M362.1,342.6c-46.5,0-86.7-15-106.1-43.5c-11.6-17.1-14.6-37.4-8.6-58.7c10.5-37.1,46.5-72.5,96.3-94.9
			c81.1-36.4,173.8-26.8,206.6,21.4l0,0c11.6,17.1,14.6,37.4,8.6,58.7c-10.5,37.1-46.5,72.5-96.3,94.9
			C429.4,335.4,394.3,342.6,362.1,342.6z M444.3,124.2c-32.1,0-67.1,7.2-100.2,22c-49.6,22.3-85.4,57.5-95.8,94.3
			c-6,21.1-3,41.1,8.5,58c32.6,47.9,124.8,57.3,205.5,21.1c49.6-22.3,85.4-57.5,95.8-94.3c6-21.1,3-41.1-8.5-58l0,0
			C530.4,139.1,490.4,124.2,444.3,124.2z"/>
	</g>
	<g id="XMLID_1707_">
		<path class="st6" d="M381,342c-11,0-22-1.4-32.5-4.5c-29.1-8.3-52-27.8-64.5-54.8c-15-32.4-13.8-72.6,3.3-110.4
			c32.5-72,112.9-115.1,179.2-96.2c29.1,8.3,52,27.8,64.5,54.9c15,32.4,13.8,72.6-3.3,110.4C500.3,301.9,439.1,342,381,342z
			 M433.8,73.1c-57.6,0-118.2,39.8-145.3,99.8c-16.9,37.4-18.1,77.2-3.3,109.2c12.3,26.7,35,45.9,63.6,54.1
			c65.6,18.8,145.3-24,177.5-95.4c16.9-37.4,18.1-77.2,3.3-109.2c-12.3-26.7-35-45.9-63.7-54.1C455.5,74.5,444.7,73.1,433.8,73.1z"
			/>
	</g>
	<g id="XMLID_1706_">
		<path class="st0" d="M381.3,301.9c-26.7,0-50.7-7.2-67.4-21.9c-14.8-13.1-22.1-30.7-21.2-50.7c1.5-30.7,22.5-63.8,56.4-88.5
			c58-42.4,136.7-49,175.3-14.7c14.8,13.1,22.1,30.7,21.2,50.7c-1.5,30.7-22.5,63.7-56.4,88.4C456.2,289.4,416.5,301.9,381.3,301.9z
			 M457.1,105c-35,0-74.6,12.5-107.5,36.5c-33.6,24.6-54.6,57.4-56,87.8c-0.9,19.8,6.3,37.1,20.9,50.1
			c38.4,34,116.5,27.4,174.3-14.8c33.6-24.5,54.6-57.4,56-87.8c0.9-19.8-6.3-37.1-20.9-50.1l0,0C507.4,112.1,483.5,105,457.1,105z"
			/>
	</g>
	<g id="XMLID_1705_">
		<path class="st0" d="M369.3,331.7c-10.3,0-20.4-1.5-30-4.6c-23.2-7.6-41.1-24-50.2-46.2c-11.2-27.1-8.6-60.3,7.2-91
			c29.7-58.1,97.4-91.3,150.9-73.8l0,0c23.2,7.6,41.1,24,50.2,46.2c11.2,27.1,8.6,60.3-7.2,91C465.8,300.9,415.9,331.7,369.3,331.7z
			 M417,112.3c-46.3,0-95.8,30.7-120.1,78c-15.6,30.5-18.2,63.4-7.2,90.3c9.1,22,26.7,38.2,49.7,45.7
			c53.1,17.3,120.3-15.6,149.9-73.4c15.6-30.5,18.2-63.4,7.1-90.3c-9.1-22-26.7-38.2-49.7-45.7C437.2,113.8,427.2,112.3,417,112.3z"
			/>
	</g>
	<g id="XMLID_1704_">
		<path class="st7" d="M384.8,310.8c-20.8,0-41.6-5-59.6-15.4c-23.1-13.4-37.8-33.3-41.3-56.1c-3.3-20.9,3.5-41.9,19.1-59
			c33.5-36.8,97.9-45.3,143.6-18.8c23.1,13.4,37.8,33.3,41.3,56.1c3.3,20.9-3.5,41.9-19.1,59C448.5,298.9,416.8,310.8,384.8,310.8z
			 M386.9,146.9c-31.8,0-63.2,11.8-83.3,34c-15.4,16.9-22.1,37.6-18.9,58.3c3.5,22.5,18,42.2,40.9,55.4
			c45.4,26.3,109.3,17.9,142.6-18.7c15.4-16.9,22.1-37.6,18.9-58.3c-3.5-22.5-18-42.2-40.9-55.5
			C428.2,151.9,407.5,146.9,386.9,146.9z"/>
	</g>
	<g id="XMLID_1702_">
		<path class="st4" d="M418,295.5c-73.9,0-134-37.6-134-83.8c0-46.2,60.1-83.8,134-83.8c73.9,0,134,37.6,134,83.8
			C552,257.9,491.9,295.5,418,295.5z M418,128.8c-73.4,0-133.2,37.2-133.2,82.9c0,45.7,59.7,82.9,133.2,82.9
			c73.4,0,133.2-37.2,133.2-82.9C551.2,166,491.5,128.8,418,128.8z"/>
	</g>
	<g id="XMLID_1701_">
		<path class="st1" d="M425.9,308.2c-23.6,0-48.8-4.2-73.4-13.1c-45.5-16.5-80.3-45.9-93.2-78.7c-7.5-19.1-6.9-38,1.8-54.7
			c24.1-46.5,104.3-62.4,178.8-35.5c45.5,16.5,80.3,45.9,93.2,78.7c7.5,19.1,6.9,38-1.8,54.7C515.2,290.7,473.8,308.2,425.9,308.2z
			 M366.5,113.9c-47.6,0-88.6,17.3-104.6,48.2c-8.5,16.4-9.1,35.1-1.7,54c12.8,32.6,47.4,61.9,92.7,78.3
			c74.1,26.8,153.9,11.1,177.8-35.1l0,0c8.5-16.4,9.1-35.1,1.7-54c-12.8-32.6-47.4-61.9-92.7-78.3
			C415.1,118.1,390,113.9,366.5,113.9z"/>
	</g>
	<g id="XMLID_1700_">
		<path class="st8" d="M282.7,313.6c-70.3,0-128.2-23.4-142.9-62.7c-6-16-4.2-33.7,5.1-51c20.7-38.5,75.5-72,143.1-87.5
			c101.5-23.3,200.1,0.8,219.8,53.8l0,0c6,16,4.2,33.7-5.1,51c-20.7,38.5-75.5,72-143.1,87.5C333.3,310.8,307.3,313.6,282.7,313.6z
			 M365.1,104.3c-24.5,0-50.6,2.9-76.8,8.9c-67.3,15.5-121.9,48.9-142.5,87.1c-9.2,17.1-11,34.5-5.1,50.3
			c19.6,52.6,117.8,76.5,218.8,53.3c67.3-15.5,121.9-48.9,142.5-87.1c9.2-17.1,11-34.5,5.1-50.3l0,0
			C492.5,127.5,435,104.3,365.1,104.3z"/>
	</g>
	<g id="XMLID_1699_">
		<path class="st4" d="M365.1,274.6c-39.2,0-82.1-9.8-121.8-29.9c-54.6-27.6-93.3-70.1-103.6-113.6c-6.3-26.6-1.5-51.7,13.9-72.5
			C195.3,2.3,303.4-6,394.5,40.2c54.6,27.6,93.3,70.1,103.6,113.6c6.3,26.6,1.5,51.7-13.9,72.5l0,0
			C460.7,258.1,416,274.6,365.1,274.6z M272.7,11.1c-50.6,0-95.1,16.4-118.5,48c-15.2,20.6-20,45.4-13.7,71.8
			c10.2,43.3,48.8,85.5,103.1,113.1c90.8,46,198.4,37.9,239.9-18.2l0.3,0.3l-0.3-0.3c15.2-20.6,20-45.4,13.7-71.8
			C487,110.7,448.5,68.5,394.2,40.9C354.6,20.9,311.8,11.1,272.7,11.1z"/>
	</g>
	<g id="XMLID_1698_">
		<path class="st6" d="M355.2,339.8c-79.7,0-147.2-31.7-165.1-83.5c-8.1-23.4-5.3-48.8,8.2-73.4c24.3-44.5,79.5-81,147.5-97.6
			C455,58.8,562.7,92.2,586,159.7l0,0c8.1,23.4,5.3,48.8-8.2,73.4c-24.3,44.5-79.5,81-147.5,97.6
			C404.9,336.9,379.5,339.8,355.2,339.8z M421.1,77.6c-24.2,0-49.5,2.9-74.9,9.1c-67.7,16.5-122.5,52.7-146.6,96.9
			c-13.2,24.2-16,49.2-8.1,72.2c23.1,66.9,130.1,99.9,238.5,73.5c67.7-16.5,122.5-52.7,146.6-96.9c13.2-24.2,16-49.2,8.1-72.3l0,0
			C567,108.9,500.1,77.6,421.1,77.6z"/>
	</g>
	<g id="XMLID_1697_">
		<path class="st6" d="M385,334.3c-79.6,0-147-31.6-164.8-83.4c-8.1-23.4-5.2-48.6,8.2-73.2c24.3-44.5,79.4-80.9,147.3-97.4
			c109-26.5,216.6,6.8,239.8,74.2l0,0c8.1,23.4,5.2,48.6-8.2,73.2c-24.3,44.5-79.4,80.9-147.3,97.4
			C434.6,331.3,409.3,334.3,385,334.3z M450.8,72c-24.2,0-49.5,2.9-74.9,9.1c-67.8,16.5-122.6,52.8-146.8,97
			c-13.3,24.3-16.1,49.4-8.1,72.5c23.1,67.1,130.3,100.1,238.8,73.7c67.8-16.5,122.6-52.8,146.8-97c13.3-24.3,16.1-49.4,8.1-72.5
			C597.1,103.4,530,72,450.8,72z"/>
	</g>
	<g id="XMLID_1696_">
		<path class="st9" d="M379,262.9c-18.7,0-34.6-5-45.4-15.6l0,0c-9.8-9.6-14.7-23.1-14.1-39.1c1.3-35,27.7-78.3,68.9-113.1
			c62.3-52.6,139-69.9,171-38.6c9.8,9.6,14.7,23.1,14.1,39.1c-1.3,35-27.7,78.3-68.9,113.1C463.3,243.5,415.8,262.9,379,262.9z
			 M334.2,246.7c31.7,31,107.9,13.7,169.8-38.6c41.1-34.7,67.4-77.8,68.6-112.5c0.6-15.8-4.2-29.1-13.8-38.5
			C527.1,26,450.9,43.3,389,95.7c-41.1,34.7-67.3,77.8-68.6,112.5C319.8,224,324.6,237.3,334.2,246.7L334.2,246.7z"/>
	</g>
	<g id="XMLID_1695_">
		<path class="st9" d="M380.5,394.7c-41.2,0-77.4-11.9-102.1-36.5l0,0c-22.1-22.1-32.9-52.3-31.3-87.4
			c2.8-62.3,43.7-132,109.2-186.5c106-88.1,243.5-108.5,306.6-45.6c22.1,22.1,32.9,52.3,31.3,87.4c-2.8,62.3-43.7,132-109.2,186.5
			C520.5,366.1,444.4,394.7,380.5,394.7z M279,357.5c62.7,62.6,199.8,42.2,305.4-45.6c65.4-54.3,106.1-123.8,108.9-185.9
			c1.6-34.9-9.2-64.9-31.1-86.8C599.5-23.4,462.5-2.9,356.8,84.9c-65.4,54.3-106.1,123.8-108.9,185.9
			C246.3,305.6,257.1,335.7,279,357.5L279,357.5z"/>
	</g>
</g>
</svg>
